<svg xmlns="http://www.w3.org/2000/svg" width="2380" height="1080" viewBox="0 0 2380 1080" role="img" aria-label="AI Infra 成长时间轴：6、18、36 个月分别证明不同层次的判断力">
  
    <defs>
      <filter id="soft-shadow" x="-20%" y="-20%" width="140%" height="140%">
        <feDropShadow dx="0" dy="14" stdDeviation="18" flood-color="#071018" flood-opacity="0.14" />
      </filter>
      <filter id="glow" x="-50%" y="-50%" width="200%" height="200%">
        <feGaussianBlur stdDeviation="10" result="blur" />
        <feMerge><feMergeNode in="blur" /><feMergeNode in="SourceGraphic" /></feMerge>
      </filter>
            <marker id="arrow" markerWidth="12" markerHeight="12" refX="10" refY="6" orient="auto" markerUnits="userSpaceOnUse">
        <path d="M2,2 L10,6 L2,10 Z" fill="#1f9d8a" />
      </marker>
            <marker id="arrow-muted" markerWidth="12" markerHeight="12" refX="10" refY="6" orient="auto" markerUnits="userSpaceOnUse">
        <path d="M2,2 L10,6 L2,10 Z" fill="#647485" opacity="0.35" />
      </marker>
            <marker id="dot-marker" markerWidth="8" markerHeight="8" refX="4" refY="4" orient="auto" markerUnits="userSpaceOnUse">
        <circle cx="4" cy="4" r="3" fill="#1f9d8a" />
      </marker>
            <marker id="dot-muted" markerWidth="8" markerHeight="8" refX="4" refY="4" orient="auto" markerUnits="userSpaceOnUse">
        <circle cx="4" cy="4" r="3" fill="#647485" opacity="0.35" />
      </marker>
      <linearGradient id="neural-edge" x1="0%" y1="0%" x2="100%" y2="0%">
        <stop offset="0%" stop-color="#1f9d8a" stop-opacity="0.15" />
        <stop offset="50%" stop-color="#5d74d8" stop-opacity="0.75" />
        <stop offset="100%" stop-color="#d88c3a" stop-opacity="0.2" />
      </linearGradient>
    </defs>
    
  
    <style>
      .title { font: 700 36px Inter, Segoe UI, Arial, sans-serif; fill: #17212b; }
      .subtitle { font: 500 14px Inter, Segoe UI, Arial, sans-serif; fill: #647485; }
      .node-title { font: 700 25px Inter, Segoe UI, Arial, sans-serif; fill: #17212b; }
      .node-subtitle { font: 500 16px Inter, Segoe UI, Arial, sans-serif; fill: #647485; }
      .edge-label { font: 650 14px Inter, Segoe UI, Arial, sans-serif; fill: #647485; }
      .panel-label { font: 700 14px Inter, Segoe UI, Arial, sans-serif; fill: #17212b; }
      .formula { font: 650 18px Consolas, Cascadia Mono, monospace; fill: #17212b; }
      .edge-path { fill: none; stroke: #1f9d8a; stroke-width: 2.5; marker-end: url(#arrow); }
      .edge-dot-path { fill: none; stroke: #1f9d8a; stroke-width: 2.5; marker-end: url(#dot-marker); }
      .edge-flow { stroke-dasharray: 10 12; animation: dash 1.6s linear infinite; }
      .flow-token { fill: #d88c3a; filter: url(#soft-shadow); opacity: 0.9; }
      .neuron { fill: #ffffff; stroke: #1f9d8a; stroke-width: 2; }
      .neuron.hot { animation: neuronPulse 2.4s ease-in-out infinite; }
      .neural-link { stroke: url(#neural-edge); stroke-width: 1.3; opacity: 0.42; animation: linkPulse 3.8s ease-in-out infinite; }
      .heat-cell { animation: heatShift 3.4s ease-in-out infinite; }
      @keyframes dash { to { stroke-dashoffset: -44; } }
      @keyframes neuronPulse { 0%,100% { filter: none; } 45% { filter: drop-shadow(0 0 14px #1f9d8a); } }
      @keyframes linkPulse { 0%,100% { opacity: 0.18; } 45% { opacity: 0.8; } }
      @keyframes heatShift { 0%,100% { opacity: 0.45; } 50% { opacity: 1; } }
    </style>
    
  <rect width="100%" height="100%" fill="#f7f9fb" />
  <rect x="54" y="44" width="2272" height="992" rx="28" fill="#ffffff" opacity="0.72" stroke="#d6e0e6" />
    <text class="title" x="90.0" y="100.0" text-anchor="start"><tspan x="90.0" dy="0.0">AI Infra 成长时间轴：6、18、36 个月分别证明不同层次的判断力</tspan></text>
    <text class="subtitle" x="92.0" y="126.0" text-anchor="start"><tspan x="92.0" dy="0.0">用三个里程碑展示从本地可运行，到独立负责方向，再到平台设计能力的成长路径</tspan></text>
    <line x1="92" y1="150.0" x2="2288" y2="150.0" stroke="#d6e0e6" stroke-width="1" stroke-dasharray="4 12" opacity="0.7" />
  <g><path id="edge-path-0" class="edge-path edge-flow" d="M 440.0 540.0 C 465.2 540.0, 474.8 340.0, 500.0 340.0" marker-end="url(#arrow)" /><path id="edge-path-1" class="edge-path edge-flow" d="M 860.0 340.0 C 906.2 340.0, 923.8 340.0, 970.0 340.0" marker-end="url(#arrow)" /><path id="edge-path-2" class="edge-path edge-flow" d="M 1330.0 340.0 C 1376.2 340.0, 1393.8 340.0, 1440.0 340.0" marker-end="url(#arrow)" /><path id="edge-path-3" class="edge-path edge-flow" d="M 860.0 340.0 C 708.8 340.0, 651.2 740.0, 500.0 740.0" marker-end="url(#arrow)" /><path id="edge-path-4" class="edge-path edge-flow" d="M 1330.0 340.0 C 1178.8 340.0, 1121.2 740.0, 970.0 740.0" marker-end="url(#arrow)" /><path id="edge-path-5" class="edge-path edge-flow" d="M 1800.0 340.0 C 1648.8 340.0, 1591.2 740.0, 1440.0 740.0" marker-end="url(#arrow)" /><path id="edge-path-6" class="edge-path edge-flow" d="M 860.0 740.0 C 1301.0 740.0, 1469.0 540.0, 1910.0 540.0" marker-end="url(#arrow)" /><path id="edge-path-7" class="edge-path edge-flow" d="M 1330.0 740.0 C 1573.6 740.0, 1666.4 540.0, 1910.0 540.0" marker-end="url(#arrow)" /><path id="edge-path-8" class="edge-path edge-flow" d="M 1800.0 740.0 C 1846.2 740.0, 1863.8 540.0, 1910.0 540.0" marker-end="url(#arrow)" /></g>
  <g><circle class="flow-token" r="7"><animateMotion dur="3.2s" begin="0.00s" repeatCount="indefinite"><mpath href="#edge-path-0" /></animateMotion></circle><circle class="flow-token" r="7"><animateMotion dur="3.2s" begin="0.35s" repeatCount="indefinite"><mpath href="#edge-path-1" /></animateMotion></circle><circle class="flow-token" r="7"><animateMotion dur="3.2s" begin="0.70s" repeatCount="indefinite"><mpath href="#edge-path-2" /></animateMotion></circle><circle class="flow-token" r="7"><animateMotion dur="3.2s" begin="1.05s" repeatCount="indefinite"><mpath href="#edge-path-3" /></animateMotion></circle><circle class="flow-token" r="7"><animateMotion dur="3.2s" begin="1.40s" repeatCount="indefinite"><mpath href="#edge-path-4" /></animateMotion></circle><circle class="flow-token" r="7"><animateMotion dur="3.2s" begin="1.75s" repeatCount="indefinite"><mpath href="#edge-path-5" /></animateMotion></circle><circle class="flow-token" r="7"><animateMotion dur="3.2s" begin="2.10s" repeatCount="indefinite"><mpath href="#edge-path-6" /></animateMotion></circle><circle class="flow-token" r="7"><animateMotion dur="3.2s" begin="2.45s" repeatCount="indefinite"><mpath href="#edge-path-7" /></animateMotion></circle><circle class="flow-token" r="7"><animateMotion dur="3.2s" begin="2.80s" repeatCount="indefinite"><mpath href="#edge-path-8" /></animateMotion></circle></g>
  <g>
            <g transform="translate(80.0,460.0)">
              <rect width="360.0" height="160.0" rx="16" fill="#ffffff" stroke="#d6e0e6" filter="url(#soft-shadow)" />
              <rect x="18" y="58.0" width="44" height="44" rx="12" fill="#eef4f7" stroke="#d6e0e6" />
              <text class="subtitle" x="40.0" y="84.0" text-anchor="middle"><tspan x="40.0" dy="0.0">起</tspan></text>
              <text class="node-title" x="76.0" y="58.5" text-anchor="start"><tspan x="76.0" dy="0.0">起点</tspan></text>
              <text class="node-subtitle" x="76.0" y="107.5" text-anchor="start"><tspan x="76.0" dy="0.0">学生、后端、SRE</tspan><tspan x="76.0" dy="21.0">数据或 ML 背景都能切入</tspan></text>
            </g>
            
            <g transform="translate(500.0,260.0)">
              <rect width="360.0" height="160.0" rx="16" fill="#ffffff" stroke="#d6e0e6" filter="url(#soft-shadow)" />
              <rect x="18" y="58.0" width="44" height="44" rx="12" fill="#eef4f7" stroke="#d6e0e6" />
              <text class="subtitle" x="40.0" y="84.0" text-anchor="middle"><tspan x="40.0" dy="0.0">6</tspan></text>
              <text class="node-title" x="76.0" y="58.5" text-anchor="start"><tspan x="76.0" dy="0.0">6 个月：工程纪律</tspan></text>
              <text class="node-subtitle" x="76.0" y="107.5" text-anchor="start"><tspan x="76.0" dy="0.0">RAG API 可部署</tspan><tspan x="76.0" dy="21.0">日志/指标/健康检查 · 实验可复现</tspan></text>
            </g>
            
            <g transform="translate(500.0,660.0)">
              <rect width="360.0" height="160.0" rx="16" fill="#ffffff" stroke="#d6e0e6" filter="url(#soft-shadow)" />
              <rect x="18" y="58.0" width="44" height="44" rx="12" fill="#eef4f7" stroke="#d6e0e6" />
              <text class="subtitle" x="40.0" y="84.0" text-anchor="middle"><tspan x="40.0" dy="0.0">项</tspan></text>
              <text class="node-title" x="76.0" y="69.0" text-anchor="start"><tspan x="76.0" dy="0.0">代表项目</tspan></text>
              <text class="node-subtitle" x="76.0" y="118.0" text-anchor="start"><tspan x="76.0" dy="0.0">带监控和评测的 LLM API 服务</tspan></text>
            </g>
            
            <g transform="translate(970.0,260.0)">
              <rect width="360.0" height="160.0" rx="16" fill="#ffffff" stroke="#d6e0e6" filter="url(#soft-shadow)" />
              <rect x="18" y="58.0" width="44" height="44" rx="12" fill="#eef4f7" stroke="#d6e0e6" />
              <text class="subtitle" x="40.0" y="84.0" text-anchor="middle"><tspan x="40.0" dy="0.0">18</tspan></text>
              <text class="node-title" x="76.0" y="58.5" text-anchor="start"><tspan x="76.0" dy="0.0">18 个月：方向负责</tspan></text>
              <text class="node-subtitle" x="76.0" y="107.5" text-anchor="start"><tspan x="76.0" dy="0.0">推理选型优化 · 训练故障诊断</tspan><tspan x="76.0" dy="21.0">RAG 评测闭环</tspan></text>
            </g>
            
            <g transform="translate(970.0,660.0)">
              <rect width="360.0" height="160.0" rx="16" fill="#ffffff" stroke="#d6e0e6" filter="url(#soft-shadow)" />
              <rect x="18" y="58.0" width="44" height="44" rx="12" fill="#eef4f7" stroke="#d6e0e6" />
              <text class="subtitle" x="40.0" y="84.0" text-anchor="middle"><tspan x="40.0" dy="0.0">项</tspan></text>
              <text class="node-title" x="76.0" y="69.0" text-anchor="start"><tspan x="76.0" dy="0.0">代表项目</tspan></text>
              <text class="node-subtitle" x="76.0" y="118.0" text-anchor="start"><tspan x="76.0" dy="0.0">类生产 LLM 服务稳定性和成本报告</tspan></text>
            </g>
            
            <g transform="translate(1440.0,260.0)">
              <rect width="360.0" height="160.0" rx="16" fill="#ffffff" stroke="#d6e0e6" filter="url(#soft-shadow)" />
              <rect x="18" y="58.0" width="44" height="44" rx="12" fill="#eef4f7" stroke="#d6e0e6" />
              <text class="subtitle" x="40.0" y="84.0" text-anchor="middle"><tspan x="40.0" dy="0.0">36</tspan></text>
              <text class="node-title" x="76.0" y="58.5" text-anchor="start"><tspan x="76.0" dy="0.0">36 个月：平台设计</tspan></text>
              <text class="node-subtitle" x="76.0" y="107.5" text-anchor="start"><tspan x="76.0" dy="0.0">模型服务平台 · 多租户资源</tspan><tspan x="76.0" dy="21.0">发布门禁 · 团队契约</tspan></text>
            </g>
            
            <g transform="translate(1440.0,660.0)">
              <rect width="360.0" height="160.0" rx="16" fill="#ffffff" stroke="#d6e0e6" filter="url(#soft-shadow)" />
              <rect x="18" y="58.0" width="44" height="44" rx="12" fill="#eef4f7" stroke="#d6e0e6" />
              <text class="subtitle" x="40.0" y="84.0" text-anchor="middle"><tspan x="40.0" dy="0.0">项</tspan></text>
              <text class="node-title" x="76.0" y="58.5" text-anchor="start"><tspan x="76.0" dy="0.0">代表项目</tspan></text>
              <text class="node-subtitle" x="76.0" y="107.5" text-anchor="start"><tspan x="76.0" dy="0.0">主导平台迁移或设计一个核心 AI</tspan><tspan x="76.0" dy="21.0">Infra 组件</tspan></text>
            </g>
            
            <g transform="translate(1910.0,460.0)">
              <rect width="360.0" height="160.0" rx="16" fill="#ffffff" stroke="#d6e0e6" filter="url(#soft-shadow)" />
              <rect x="18" y="58.0" width="44" height="44" rx="12" fill="#eef4f7" stroke="#d6e0e6" />
              <text class="subtitle" x="40.0" y="84.0" text-anchor="middle"><tspan x="40.0" dy="0.0">证</tspan></text>
              <text class="node-title" x="76.0" y="58.5" text-anchor="start"><tspan x="76.0" dy="0.0">作品集证据</tspan></text>
              <text class="node-subtitle" x="76.0" y="107.5" text-anchor="start"><tspan x="76.0" dy="0.0">问题、指标、权衡</tspan><tspan x="76.0" dy="21.0">迭代过程和复盘记录</tspan></text>
            </g>
            </g>
  <g><rect x="445.1" y="393.0" width="49.7" height="28.0" rx="4" fill="#f7f9fb" opacity="0.92" /><text class="edge-label" x="470.0" y="408.0" text-anchor="middle"><tspan x="470.0" dy="0.0">打基础</tspan></text><rect x="884.2" y="293.0" width="61.6" height="28.0" rx="4" fill="#f7f9fb" opacity="0.92" /><text class="edge-label" x="915.0" y="308.0" text-anchor="middle"><tspan x="915.0" dy="0.0">深入方向</tspan></text><rect x="1354.2" y="293.0" width="61.6" height="28.0" rx="4" fill="#f7f9fb" opacity="0.92" /><text class="edge-label" x="1385.0" y="308.0" text-anchor="middle"><tspan x="1385.0" dy="0.0">跨层设计</tspan></text><rect x="661.1" y="493.0" width="37.8" height="28.0" rx="4" fill="#f7f9fb" opacity="0.92" /><text class="edge-label" x="680.0" y="508.0" text-anchor="middle"><tspan x="680.0" dy="0.0">产物</tspan></text><rect x="1131.1" y="493.0" width="37.8" height="28.0" rx="4" fill="#f7f9fb" opacity="0.92" /><text class="edge-label" x="1150.0" y="508.0" text-anchor="middle"><tspan x="1150.0" dy="0.0">产物</tspan></text><rect x="1601.1" y="493.0" width="37.8" height="28.0" rx="4" fill="#f7f9fb" opacity="0.92" /><text class="edge-label" x="1620.0" y="508.0" text-anchor="middle"><tspan x="1620.0" dy="0.0">产物</tspan></text><rect x="1366.1" y="593.0" width="37.8" height="28.0" rx="4" fill="#f7f9fb" opacity="0.92" /><text class="edge-label" x="1385.0" y="608.0" text-anchor="middle"><tspan x="1385.0" dy="0.0">沉淀</tspan></text><rect x="1601.1" y="593.0" width="37.8" height="28.0" rx="4" fill="#f7f9fb" opacity="0.92" /><text class="edge-label" x="1620.0" y="608.0" text-anchor="middle"><tspan x="1620.0" dy="0.0">沉淀</tspan></text><rect x="1836.1" y="593.0" width="37.8" height="28.0" rx="4" fill="#f7f9fb" opacity="0.92" /><text class="edge-label" x="1855.0" y="608.0" text-anchor="middle"><tspan x="1855.0" dy="0.0">沉淀</tspan></text></g>
</svg>
