<svg xmlns="http://www.w3.org/2000/svg" width="2320" height="1080" viewBox="0 0 2320 1080" role="img" aria-label="AI 系统 SLO 指标体系：硬故障和软故障一起进入可靠性目标">
  
    <defs>
      <filter id="soft-shadow" x="-20%" y="-20%" width="140%" height="140%">
        <feDropShadow dx="0" dy="14" stdDeviation="18" flood-color="#071018" flood-opacity="0.14" />
      </filter>
      <filter id="glow" x="-50%" y="-50%" width="200%" height="200%">
        <feGaussianBlur stdDeviation="10" result="blur" />
        <feMerge><feMergeNode in="blur" /><feMergeNode in="SourceGraphic" /></feMerge>
      </filter>
            <marker id="arrow" markerWidth="12" markerHeight="12" refX="10" refY="6" orient="auto" markerUnits="userSpaceOnUse">
        <path d="M2,2 L10,6 L2,10 Z" fill="#1f9d8a" />
      </marker>
            <marker id="arrow-muted" markerWidth="12" markerHeight="12" refX="10" refY="6" orient="auto" markerUnits="userSpaceOnUse">
        <path d="M2,2 L10,6 L2,10 Z" fill="#647485" opacity="0.35" />
      </marker>
            <marker id="dot-marker" markerWidth="8" markerHeight="8" refX="4" refY="4" orient="auto" markerUnits="userSpaceOnUse">
        <circle cx="4" cy="4" r="3" fill="#1f9d8a" />
      </marker>
            <marker id="dot-muted" markerWidth="8" markerHeight="8" refX="4" refY="4" orient="auto" markerUnits="userSpaceOnUse">
        <circle cx="4" cy="4" r="3" fill="#647485" opacity="0.35" />
      </marker>
      <linearGradient id="neural-edge" x1="0%" y1="0%" x2="100%" y2="0%">
        <stop offset="0%" stop-color="#1f9d8a" stop-opacity="0.15" />
        <stop offset="50%" stop-color="#5d74d8" stop-opacity="0.75" />
        <stop offset="100%" stop-color="#d88c3a" stop-opacity="0.2" />
      </linearGradient>
    </defs>
    
  
    <style>
      .title { font: 700 36px Inter, Segoe UI, Arial, sans-serif; fill: #17212b; }
      .subtitle { font: 500 14px Inter, Segoe UI, Arial, sans-serif; fill: #647485; }
      .node-title { font: 700 25px Inter, Segoe UI, Arial, sans-serif; fill: #17212b; }
      .node-subtitle { font: 500 16px Inter, Segoe UI, Arial, sans-serif; fill: #647485; }
      .edge-label { font: 650 14px Inter, Segoe UI, Arial, sans-serif; fill: #647485; }
      .panel-label { font: 700 14px Inter, Segoe UI, Arial, sans-serif; fill: #17212b; }
      .formula { font: 650 18px Consolas, Cascadia Mono, monospace; fill: #17212b; }
      .edge-path { fill: none; stroke: #1f9d8a; stroke-width: 2.5; marker-end: url(#arrow); }
      .edge-dot-path { fill: none; stroke: #1f9d8a; stroke-width: 2.5; marker-end: url(#dot-marker); }
      .edge-flow { stroke-dasharray: 10 12; animation: dash 1.6s linear infinite; }
      .flow-token { fill: #d88c3a; filter: url(#soft-shadow); opacity: 0.9; }
      .neuron { fill: #ffffff; stroke: #1f9d8a; stroke-width: 2; }
      .neuron.hot { animation: neuronPulse 2.4s ease-in-out infinite; }
      .neural-link { stroke: url(#neural-edge); stroke-width: 1.3; opacity: 0.42; animation: linkPulse 3.8s ease-in-out infinite; }
      .heat-cell { animation: heatShift 3.4s ease-in-out infinite; }
      @keyframes dash { to { stroke-dashoffset: -44; } }
      @keyframes neuronPulse { 0%,100% { filter: none; } 45% { filter: drop-shadow(0 0 14px #1f9d8a); } }
      @keyframes linkPulse { 0%,100% { opacity: 0.18; } 45% { opacity: 0.8; } }
      @keyframes heatShift { 0%,100% { opacity: 0.45; } 50% { opacity: 1; } }
    </style>
    
  <rect width="100%" height="100%" fill="#f7f9fb" />
  <rect x="54" y="44" width="2212" height="992" rx="28" fill="#ffffff" opacity="0.72" stroke="#d6e0e6" />
    <text class="title" x="90.0" y="100.0" text-anchor="start"><tspan x="90.0" dy="0.0">AI 系统 SLO 指标体系：硬故障和软故障一起进入可靠性目标</tspan></text>
    <text class="subtitle" x="92.0" y="126.0" text-anchor="start"><tspan x="92.0" dy="0.0">把 SLI、SLO、SLA 的层次关系扩展到可用性、延迟和质量三类指标，避免 200 OK 掩盖模型质量退化</tspan></text>
    <line x1="92" y1="150.0" x2="2228" y2="150.0" stroke="#d6e0e6" stroke-width="1" stroke-dasharray="4 12" opacity="0.7" />
  <g><path id="edge-path-0" class="edge-path edge-flow" d="M 450.0 540.0 C 479.4 540.0, 490.6 238.0, 520.0 238.0" marker-end="url(#arrow)" /><path id="edge-path-1" class="edge-path edge-flow" d="M 450.0 540.0 C 479.4 540.0, 490.6 540.0, 520.0 540.0" marker-end="url(#arrow)" /><path id="edge-path-2" class="edge-path edge-flow" d="M 450.0 540.0 C 479.4 540.0, 490.6 842.0, 520.0 842.0" marker-end="url(#arrow)" /><path id="edge-path-3" class="edge-path edge-flow" d="M 880.0 238.0 C 909.4 238.0, 920.6 330.0, 950.0 330.0" marker-end="url(#arrow)" /><path id="edge-path-4" class="edge-path edge-flow" d="M 880.0 540.0 C 909.4 540.0, 920.6 330.0, 950.0 330.0" marker-end="url(#arrow)" /><path id="edge-path-5" class="edge-path edge-flow" d="M 880.0 842.0 C 909.4 842.0, 920.6 750.0, 950.0 750.0" marker-end="url(#arrow)" /><path id="edge-path-6" class="edge-path edge-flow" d="M 1310.0 330.0 C 1339.4 330.0, 1350.6 330.0, 1380.0 330.0" marker-end="url(#arrow)" /><path id="edge-path-7" class="edge-path edge-flow" d="M 1310.0 750.0 C 1339.4 750.0, 1350.6 750.0, 1380.0 750.0" marker-end="url(#arrow)" /><path id="edge-path-8" class="edge-path edge-flow" d="M 1740.0 330.0 C 1769.4 330.0, 1780.6 540.0, 1810.0 540.0" marker-end="url(#arrow)" /><path id="edge-path-9" class="edge-path edge-flow" d="M 1740.0 750.0 C 1769.4 750.0, 1780.6 540.0, 1810.0 540.0" marker-end="url(#arrow)" /></g>
  <g><circle class="flow-token" r="7"><animateMotion dur="3.2s" begin="0.00s" repeatCount="indefinite"><mpath href="#edge-path-0" /></animateMotion></circle><circle class="flow-token" r="7"><animateMotion dur="3.2s" begin="0.35s" repeatCount="indefinite"><mpath href="#edge-path-1" /></animateMotion></circle><circle class="flow-token" r="7"><animateMotion dur="3.2s" begin="0.70s" repeatCount="indefinite"><mpath href="#edge-path-2" /></animateMotion></circle><circle class="flow-token" r="7"><animateMotion dur="3.2s" begin="1.05s" repeatCount="indefinite"><mpath href="#edge-path-3" /></animateMotion></circle><circle class="flow-token" r="7"><animateMotion dur="3.2s" begin="1.40s" repeatCount="indefinite"><mpath href="#edge-path-4" /></animateMotion></circle><circle class="flow-token" r="7"><animateMotion dur="3.2s" begin="1.75s" repeatCount="indefinite"><mpath href="#edge-path-5" /></animateMotion></circle><circle class="flow-token" r="7"><animateMotion dur="3.2s" begin="2.10s" repeatCount="indefinite"><mpath href="#edge-path-6" /></animateMotion></circle><circle class="flow-token" r="7"><animateMotion dur="3.2s" begin="2.45s" repeatCount="indefinite"><mpath href="#edge-path-7" /></animateMotion></circle><circle class="flow-token" r="7"><animateMotion dur="3.2s" begin="2.80s" repeatCount="indefinite"><mpath href="#edge-path-8" /></animateMotion></circle><circle class="flow-token" r="7"><animateMotion dur="3.2s" begin="3.15s" repeatCount="indefinite"><mpath href="#edge-path-9" /></animateMotion></circle></g>
  <g>
            <g transform="translate(90.0,462.0)">
              <rect width="360.0" height="156.0" rx="16" fill="#ffffff" stroke="#d6e0e6" filter="url(#soft-shadow)" />
              <rect x="18" y="56.0" width="44" height="44" rx="12" fill="#eef4f7" stroke="#d6e0e6" />
              <text class="subtitle" x="40.0" y="82.0" text-anchor="middle"><tspan x="40.0" dy="0.0">源</tspan></text>
              <text class="node-title" x="76.0" y="56.5" text-anchor="start"><tspan x="76.0" dy="0.0">请求元数据</tspan></text>
              <text class="node-subtitle" x="76.0" y="105.5" text-anchor="start"><tspan x="76.0" dy="0.0">request_id · model</tspan><tspan x="76.0" dy="21.0">prompt_version · tokens…</tspan></text>
            </g>
            
            <g transform="translate(520.0,160.0)">
              <rect width="360.0" height="156.0" rx="16" fill="#ffffff" stroke="#d6e0e6" filter="url(#soft-shadow)" />
              <rect x="18" y="56.0" width="44" height="44" rx="12" fill="#eef4f7" stroke="#d6e0e6" />
              <text class="subtitle" x="40.0" y="82.0" text-anchor="middle"><tspan x="40.0" dy="0.0">硬</tspan></text>
              <text class="node-title" x="76.0" y="56.5" text-anchor="start"><tspan x="76.0" dy="0.0">可用性 SLI</tspan></text>
              <text class="node-subtitle" x="76.0" y="105.5" text-anchor="start"><tspan x="76.0" dy="0.0">成功请求率 · 超时率</tspan><tspan x="76.0" dy="21.0">模型服务错误率</tspan></text>
            </g>
            
            <g transform="translate(520.0,462.0)">
              <rect width="360.0" height="156.0" rx="16" fill="#ffffff" stroke="#d6e0e6" filter="url(#soft-shadow)" />
              <rect x="18" y="56.0" width="44" height="44" rx="12" fill="#eef4f7" stroke="#d6e0e6" />
              <text class="subtitle" x="40.0" y="82.0" text-anchor="middle"><tspan x="40.0" dy="0.0">时</tspan></text>
              <text class="node-title" x="76.0" y="56.5" text-anchor="start"><tspan x="76.0" dy="0.0">延迟 SLI</tspan></text>
              <text class="node-subtitle" x="76.0" y="105.5" text-anchor="start"><tspan x="76.0" dy="0.0">TTFT p99 &lt; 2s · TPOT p95</tspan><tspan x="76.0" dy="21.0">queue time</tspan></text>
            </g>
            
            <g transform="translate(520.0,764.0)">
              <rect width="360.0" height="156.0" rx="16" fill="#ffffff" stroke="#d6e0e6" filter="url(#soft-shadow)" />
              <rect x="18" y="56.0" width="44" height="44" rx="12" fill="#eef4f7" stroke="#d6e0e6" />
              <text class="subtitle" x="40.0" y="82.0" text-anchor="middle"><tspan x="40.0" dy="0.0">软</tspan></text>
              <text class="node-title" x="76.0" y="56.5" text-anchor="start"><tspan x="76.0" dy="0.0">质量 SLI</tspan></text>
              <text class="node-subtitle" x="76.0" y="105.5" text-anchor="start"><tspan x="76.0" dy="0.0">refusal rate &lt; 2% · 反馈分</tspan><tspan x="76.0" dy="21.0">评测集回归</tspan></text>
            </g>
            
            <g transform="translate(950.0,252.0)">
              <rect width="360.0" height="156.0" rx="16" fill="#ffffff" stroke="#d6e0e6" filter="url(#soft-shadow)" />
              <rect x="18" y="56.0" width="44" height="44" rx="12" fill="#eef4f7" stroke="#d6e0e6" />
              <text class="subtitle" x="40.0" y="82.0" text-anchor="middle"><tspan x="40.0" dy="0.0">SLO</tspan></text>
              <text class="node-title" x="76.0" y="67.0" text-anchor="start"><tspan x="76.0" dy="0.0">硬故障 SLO</tspan></text>
              <text class="node-subtitle" x="76.0" y="116.0" text-anchor="start"><tspan x="76.0" dy="0.0">可用性 99.9% · 延迟窗口达标</tspan></text>
            </g>
            
            <g transform="translate(950.0,672.0)">
              <rect width="360.0" height="156.0" rx="16" fill="#ffffff" stroke="#d6e0e6" filter="url(#soft-shadow)" />
              <rect x="18" y="56.0" width="44" height="44" rx="12" fill="#eef4f7" stroke="#d6e0e6" />
              <text class="subtitle" x="40.0" y="82.0" text-anchor="middle"><tspan x="40.0" dy="0.0">质</tspan></text>
              <text class="node-title" x="76.0" y="56.5" text-anchor="start"><tspan x="76.0" dy="0.0">软故障 SLO</tspan></text>
              <text class="node-subtitle" x="76.0" y="105.5" text-anchor="start"><tspan x="76.0" dy="0.0">质量波动有阈值</tspan><tspan x="76.0" dy="21.0">低分样本进入复盘</tspan></text>
            </g>
            
            <g transform="translate(1380.0,252.0)">
              <rect width="360.0" height="156.0" rx="16" fill="#ffffff" stroke="#d6e0e6" filter="url(#soft-shadow)" />
              <rect x="18" y="56.0" width="44" height="44" rx="12" fill="#eef4f7" stroke="#d6e0e6" />
              <text class="subtitle" x="40.0" y="82.0" text-anchor="middle"><tspan x="40.0" dy="0.0">预算</tspan></text>
              <text class="node-title" x="76.0" y="67.0" text-anchor="start"><tspan x="76.0" dy="0.0">错误预算</tspan></text>
              <text class="node-subtitle" x="76.0" y="116.0" text-anchor="start"><tspan x="76.0" dy="0.0">预算燃烧约束发布、扩流和模型切换</tspan></text>
            </g>
            
            <g transform="translate(1380.0,672.0)">
              <rect width="360.0" height="156.0" rx="16" fill="#ffffff" stroke="#d6e0e6" filter="url(#soft-shadow)" />
              <rect x="18" y="56.0" width="44" height="44" rx="12" fill="#eef4f7" stroke="#d6e0e6" />
              <text class="subtitle" x="40.0" y="82.0" text-anchor="middle"><tspan x="40.0" dy="0.0">响</tspan></text>
              <text class="node-title" x="76.0" y="56.5" text-anchor="start"><tspan x="76.0" dy="0.0">告警与 Runbook</tspan></text>
              <text class="node-subtitle" x="76.0" y="105.5" text-anchor="start"><tspan x="76.0" dy="0.0">按影响范围路由到 owner</tspan><tspan x="76.0" dy="21.0">看板和处置步骤</tspan></text>
            </g>
            
            <g transform="translate(1810.0,462.0)">
              <rect width="360.0" height="156.0" rx="16" fill="#ffffff" stroke="#d6e0e6" filter="url(#soft-shadow)" />
              <rect x="18" y="56.0" width="44" height="44" rx="12" fill="#eef4f7" stroke="#d6e0e6" />
              <text class="subtitle" x="40.0" y="82.0" text-anchor="middle"><tspan x="40.0" dy="0.0">SLA</tspan></text>
              <text class="node-title" x="76.0" y="56.5" text-anchor="start"><tspan x="76.0" dy="0.0">SLA 与用户承诺</tspan></text>
              <text class="node-subtitle" x="76.0" y="105.5" text-anchor="start"><tspan x="76.0" dy="0.0">外部承诺更保守</tspan><tspan x="76.0" dy="21.0">内部目标留恢复余量</tspan></text>
            </g>
            </g>
  <g><rect x="445.0" y="342.0" width="80.0" height="28.0" rx="4" fill="#f7f9fb" opacity="0.92" /><text class="edge-label" x="485.0" y="357.0" text-anchor="middle"><tspan x="485.0" dy="0.0">状态码/错误</tspan></text><rect x="454.2" y="493.0" width="61.6" height="28.0" rx="4" fill="#f7f9fb" opacity="0.92" /><text class="edge-label" x="485.0" y="508.0" text-anchor="middle"><tspan x="485.0" dy="0.0">时间分布</tspan></text><rect x="454.2" y="644.0" width="61.6" height="28.0" rx="4" fill="#f7f9fb" opacity="0.92" /><text class="edge-label" x="485.0" y="659.0" text-anchor="middle"><tspan x="485.0" dy="0.0">质量信号</tspan></text><rect x="890.1" y="237.0" width="49.7" height="28.0" rx="4" fill="#f7f9fb" opacity="0.92" /><text class="edge-label" x="915.0" y="252.0" text-anchor="middle"><tspan x="915.0" dy="0.0">硬目标</tspan></text><rect x="890.1" y="388.0" width="49.7" height="28.0" rx="4" fill="#f7f9fb" opacity="0.92" /><text class="edge-label" x="915.0" y="403.0" text-anchor="middle"><tspan x="915.0" dy="0.0">硬目标</tspan></text><rect x="890.1" y="749.0" width="49.7" height="28.0" rx="4" fill="#f7f9fb" opacity="0.92" /><text class="edge-label" x="915.0" y="764.0" text-anchor="middle"><tspan x="915.0" dy="0.0">软目标</tspan></text><rect x="1326.1" y="283.0" width="37.8" height="28.0" rx="4" fill="#f7f9fb" opacity="0.92" /><text class="edge-label" x="1345.0" y="298.0" text-anchor="middle"><tspan x="1345.0" dy="0.0">消耗</tspan></text><rect x="1303.2" y="703.0" width="83.6" height="28.0" rx="4" fill="#f7f9fb" opacity="0.92" /><text class="edge-label" x="1345.0" y="718.0" text-anchor="middle"><tspan x="1345.0" dy="0.0">触发 review</tspan></text><rect x="1744.2" y="388.0" width="61.6" height="28.0" rx="4" fill="#f7f9fb" opacity="0.92" /><text class="edge-label" x="1775.0" y="403.0" text-anchor="middle"><tspan x="1775.0" dy="0.0">保护承诺</tspan></text><rect x="1744.2" y="598.0" width="61.6" height="28.0" rx="4" fill="#f7f9fb" opacity="0.92" /><text class="edge-label" x="1775.0" y="613.0" text-anchor="middle"><tspan x="1775.0" dy="0.0">降低影响</tspan></text></g>
</svg>
