<svg xmlns="http://www.w3.org/2000/svg" width="2100" height="1080" viewBox="0 0 2100 1080" role="img" aria-label="成本归因分层：一张 GPU 账单要拆到功能、模型和用户">
  
    <defs>
      <filter id="soft-shadow" x="-20%" y="-20%" width="140%" height="140%">
        <feDropShadow dx="0" dy="14" stdDeviation="18" flood-color="#071018" flood-opacity="0.14" />
      </filter>
      <filter id="glow" x="-50%" y="-50%" width="200%" height="200%">
        <feGaussianBlur stdDeviation="10" result="blur" />
        <feMerge><feMergeNode in="blur" /><feMergeNode in="SourceGraphic" /></feMerge>
      </filter>
            <marker id="arrow" markerWidth="12" markerHeight="12" refX="10" refY="6" orient="auto" markerUnits="userSpaceOnUse">
        <path d="M2,2 L10,6 L2,10 Z" fill="#1f9d8a" />
      </marker>
            <marker id="arrow-muted" markerWidth="12" markerHeight="12" refX="10" refY="6" orient="auto" markerUnits="userSpaceOnUse">
        <path d="M2,2 L10,6 L2,10 Z" fill="#647485" opacity="0.35" />
      </marker>
            <marker id="dot-marker" markerWidth="8" markerHeight="8" refX="4" refY="4" orient="auto" markerUnits="userSpaceOnUse">
        <circle cx="4" cy="4" r="3" fill="#1f9d8a" />
      </marker>
            <marker id="dot-muted" markerWidth="8" markerHeight="8" refX="4" refY="4" orient="auto" markerUnits="userSpaceOnUse">
        <circle cx="4" cy="4" r="3" fill="#647485" opacity="0.35" />
      </marker>
      <linearGradient id="neural-edge" x1="0%" y1="0%" x2="100%" y2="0%">
        <stop offset="0%" stop-color="#1f9d8a" stop-opacity="0.15" />
        <stop offset="50%" stop-color="#5d74d8" stop-opacity="0.75" />
        <stop offset="100%" stop-color="#d88c3a" stop-opacity="0.2" />
      </linearGradient>
    </defs>
    
  
    <style>
      .title { font: 700 36px Inter, Segoe UI, Arial, sans-serif; fill: #17212b; }
      .subtitle { font: 500 14px Inter, Segoe UI, Arial, sans-serif; fill: #647485; }
      .node-title { font: 700 25px Inter, Segoe UI, Arial, sans-serif; fill: #17212b; }
      .node-subtitle { font: 500 16px Inter, Segoe UI, Arial, sans-serif; fill: #647485; }
      .edge-label { font: 650 14px Inter, Segoe UI, Arial, sans-serif; fill: #647485; }
      .panel-label { font: 700 14px Inter, Segoe UI, Arial, sans-serif; fill: #17212b; }
      .formula { font: 650 18px Consolas, Cascadia Mono, monospace; fill: #17212b; }
      .edge-path { fill: none; stroke: #1f9d8a; stroke-width: 2.5; marker-end: url(#arrow); }
      .edge-dot-path { fill: none; stroke: #1f9d8a; stroke-width: 2.5; marker-end: url(#dot-marker); }
      .edge-flow { stroke-dasharray: 10 12; animation: dash 1.6s linear infinite; }
      .flow-token { fill: #d88c3a; filter: url(#soft-shadow); opacity: 0.9; }
      .neuron { fill: #ffffff; stroke: #1f9d8a; stroke-width: 2; }
      .neuron.hot { animation: neuronPulse 2.4s ease-in-out infinite; }
      .neural-link { stroke: url(#neural-edge); stroke-width: 1.3; opacity: 0.42; animation: linkPulse 3.8s ease-in-out infinite; }
      .heat-cell { animation: heatShift 3.4s ease-in-out infinite; }
      @keyframes dash { to { stroke-dashoffset: -44; } }
      @keyframes neuronPulse { 0%,100% { filter: none; } 45% { filter: drop-shadow(0 0 14px #1f9d8a); } }
      @keyframes linkPulse { 0%,100% { opacity: 0.18; } 45% { opacity: 0.8; } }
      @keyframes heatShift { 0%,100% { opacity: 0.45; } 50% { opacity: 1; } }
    </style>
    
  <rect width="100%" height="100%" fill="#f7f9fb" />
  <rect x="54" y="44" width="1992" height="992" rx="28" fill="#ffffff" opacity="0.72" stroke="#d6e0e6" />
    <text class="title" x="90.0" y="100.0" text-anchor="start"><tspan x="90.0" dy="0.0">成本归因分层：一张 GPU 账单要拆到功能、模型和用户</tspan></text>
    <text class="subtitle" x="92.0" y="126.0" text-anchor="start"><tspan x="92.0" dy="0.0">从云账单到节点池、模型服务、功能模块、租户和用户类型逐层归因，让优化责任可见</tspan></text>
    <line x1="92" y1="150.0" x2="2008" y2="150.0" stroke="#d6e0e6" stroke-width="1" stroke-dasharray="4 12" opacity="0.7" />
  <g><path id="edge-path-0" class="edge-path edge-flow" d="M 440.0 535.0 C 455.0 535.0, 455.0 535.0, 470.0 535.0" marker-end="url(#arrow)" /><path id="edge-path-1" class="edge-path edge-flow" d="M 820.0 535.0 C 835.0 535.0, 835.0 535.0, 850.0 535.0" marker-end="url(#arrow)" /><path id="edge-path-2" class="edge-path edge-flow" d="M 1200.0 535.0 C 1215.0 535.0, 1215.0 535.0, 1230.0 535.0" marker-end="url(#arrow)" /><path id="edge-path-3" class="edge-path edge-flow" d="M 1580.0 535.0 C 1595.0 535.0, 1595.0 535.0, 1610.0 535.0" marker-end="url(#arrow)" /><path id="edge-path-4" class="edge-path edge-flow" d="M 1200.0 225.0 C 1053.0 225.0, 997.0 535.0, 850.0 535.0" marker-end="url(#arrow)" /><path id="edge-path-5" class="edge-path edge-flow" d="M 1200.0 225.0 C 1215.0 225.0, 1215.0 535.0, 1230.0 535.0" marker-end="url(#arrow)" /><path id="edge-path-6" class="edge-path edge-flow" d="M 820.0 535.0 C 673.0 535.0, 617.0 835.0, 470.0 835.0" marker-end="url(#arrow)" /><path id="edge-path-7" class="edge-path edge-flow" d="M 820.0 835.0 C 992.2 835.0, 1057.8 835.0, 1230.0 835.0" marker-end="url(#arrow)" /><path id="edge-path-8" class="edge-path edge-flow" d="M 1960.0 535.0 C 1653.4 535.0, 1536.6 835.0, 1230.0 835.0" marker-end="url(#arrow)" /><path id="edge-path-9" class="edge-path edge-flow" d="M 1580.0 835.0 C 1595.0 835.0, 1595.0 835.0, 1610.0 835.0" marker-end="url(#arrow)" /></g>
  <g><circle class="flow-token" r="7"><animateMotion dur="3.2s" begin="0.00s" repeatCount="indefinite"><mpath href="#edge-path-0" /></animateMotion></circle><circle class="flow-token" r="7"><animateMotion dur="3.2s" begin="0.35s" repeatCount="indefinite"><mpath href="#edge-path-1" /></animateMotion></circle><circle class="flow-token" r="7"><animateMotion dur="3.2s" begin="0.70s" repeatCount="indefinite"><mpath href="#edge-path-2" /></animateMotion></circle><circle class="flow-token" r="7"><animateMotion dur="3.2s" begin="1.05s" repeatCount="indefinite"><mpath href="#edge-path-3" /></animateMotion></circle><circle class="flow-token" r="7"><animateMotion dur="3.2s" begin="1.40s" repeatCount="indefinite"><mpath href="#edge-path-4" /></animateMotion></circle><circle class="flow-token" r="7"><animateMotion dur="3.2s" begin="1.75s" repeatCount="indefinite"><mpath href="#edge-path-5" /></animateMotion></circle><circle class="flow-token" r="7"><animateMotion dur="3.2s" begin="2.10s" repeatCount="indefinite"><mpath href="#edge-path-6" /></animateMotion></circle><circle class="flow-token" r="7"><animateMotion dur="3.2s" begin="2.45s" repeatCount="indefinite"><mpath href="#edge-path-7" /></animateMotion></circle><circle class="flow-token" r="7"><animateMotion dur="3.2s" begin="2.80s" repeatCount="indefinite"><mpath href="#edge-path-8" /></animateMotion></circle><circle class="flow-token" r="7"><animateMotion dur="3.2s" begin="3.15s" repeatCount="indefinite"><mpath href="#edge-path-9" /></animateMotion></circle></g>
  <g>
            <g transform="translate(90.0,460.0)">
              <rect width="350.0" height="150.0" rx="16" fill="#ffffff" stroke="#d6e0e6" filter="url(#soft-shadow)" />
              <rect x="18" y="53.0" width="44" height="44" rx="12" fill="#eef4f7" stroke="#d6e0e6" />
              <text class="subtitle" x="40.0" y="79.0" text-anchor="middle"><tspan x="40.0" dy="0.0">账</tspan></text>
              <text class="node-title" x="76.0" y="53.5" text-anchor="start"><tspan x="76.0" dy="0.0">云账单 / GPU 成本</tspan></text>
              <text class="node-subtitle" x="76.0" y="102.5" text-anchor="start"><tspan x="76.0" dy="0.0">GPU 小时、节点池</tspan><tspan x="76.0" dy="21.0">存储和网络费用</tspan></text>
            </g>
            
            <g transform="translate(470.0,460.0)">
              <rect width="350.0" height="150.0" rx="16" fill="#ffffff" stroke="#d6e0e6" filter="url(#soft-shadow)" />
              <rect x="18" y="53.0" width="44" height="44" rx="12" fill="#eef4f7" stroke="#d6e0e6" />
              <text class="subtitle" x="40.0" y="79.0" text-anchor="middle"><tspan x="40.0" dy="0.0">层1</tspan></text>
              <text class="node-title" x="76.0" y="53.5" text-anchor="start"><tspan x="76.0" dy="0.0">集群与节点池</tspan></text>
              <text class="node-subtitle" x="76.0" y="102.5" text-anchor="start"><tspan x="76.0" dy="0.0">on-demand、Spot、GPU 型号</tspan><tspan x="76.0" dy="21.0">MIG profile</tspan></text>
            </g>
            
            <g transform="translate(850.0,460.0)">
              <rect width="350.0" height="150.0" rx="16" fill="#ffffff" stroke="#d6e0e6" filter="url(#soft-shadow)" />
              <rect x="18" y="53.0" width="44" height="44" rx="12" fill="#eef4f7" stroke="#d6e0e6" />
              <text class="subtitle" x="40.0" y="79.0" text-anchor="middle"><tspan x="40.0" dy="0.0">层2</tspan></text>
              <text class="node-title" x="76.0" y="53.5" text-anchor="start"><tspan x="76.0" dy="0.0">模型服务</tspan></text>
              <text class="node-subtitle" x="76.0" y="102.5" text-anchor="start"><tspan x="76.0" dy="0.0">model、deployment、engine</tspan><tspan x="76.0" dy="21.0">replica、token usage</tspan></text>
            </g>
            
            <g transform="translate(1230.0,460.0)">
              <rect width="350.0" height="150.0" rx="16" fill="#ffffff" stroke="#d6e0e6" filter="url(#soft-shadow)" />
              <rect x="18" y="53.0" width="44" height="44" rx="12" fill="#eef4f7" stroke="#d6e0e6" />
              <text class="subtitle" x="40.0" y="79.0" text-anchor="middle"><tspan x="40.0" dy="0.0">层3</tspan></text>
              <text class="node-title" x="76.0" y="64.0" text-anchor="start"><tspan x="76.0" dy="0.0">功能模块</tspan></text>
              <text class="node-subtitle" x="76.0" y="113.0" text-anchor="start"><tspan x="76.0" dy="0.0">对话、摘要、搜索、代码、批处理</tspan></text>
            </g>
            
            <g transform="translate(1610.0,460.0)">
              <rect width="350.0" height="150.0" rx="16" fill="#ffffff" stroke="#d6e0e6" filter="url(#soft-shadow)" />
              <rect x="18" y="53.0" width="44" height="44" rx="12" fill="#eef4f7" stroke="#d6e0e6" />
              <text class="subtitle" x="40.0" y="79.0" text-anchor="middle"><tspan x="40.0" dy="0.0">层4</tspan></text>
              <text class="node-title" x="76.0" y="53.5" text-anchor="start"><tspan x="76.0" dy="0.0">租户与用户类型</tspan></text>
              <text class="node-subtitle" x="76.0" y="102.5" text-anchor="start"><tspan x="76.0" dy="0.0">付费/免费、内部/外部</tspan><tspan x="76.0" dy="21.0">高价值/低优先级</tspan></text>
            </g>
            
            <g transform="translate(850.0,150.0)">
              <rect width="350.0" height="150.0" rx="16" fill="#ffffff" stroke="#d6e0e6" filter="url(#soft-shadow)" />
              <rect x="18" y="53.0" width="44" height="44" rx="12" fill="#eef4f7" stroke="#d6e0e6" />
              <text class="subtitle" x="40.0" y="79.0" text-anchor="middle"><tspan x="40.0" dy="0.0">元</tspan></text>
              <text class="node-title" x="76.0" y="53.5" text-anchor="start"><tspan x="76.0" dy="0.0">请求元数据</tspan></text>
              <text class="node-subtitle" x="76.0" y="102.5" text-anchor="start"><tspan x="76.0" dy="0.0">request_id、tenant、feature</tspan><tspan x="76.0" dy="21.0">model、tokens</tspan></text>
            </g>
            
            <g transform="translate(470.0,760.0)">
              <rect width="350.0" height="150.0" rx="16" fill="#ffffff" stroke="#d6e0e6" filter="url(#soft-shadow)" />
              <rect x="18" y="53.0" width="44" height="44" rx="12" fill="#eef4f7" stroke="#d6e0e6" />
              <text class="subtitle" x="40.0" y="79.0" text-anchor="middle"><tspan x="40.0" dy="0.0">标</tspan></text>
              <text class="node-title" x="76.0" y="53.5" text-anchor="start"><tspan x="76.0" dy="0.0">标签与分摊规则</tspan></text>
              <text class="node-subtitle" x="76.0" y="102.5" text-anchor="start"><tspan x="76.0" dy="0.0">owner、team、cost_center</tspan><tspan x="76.0" dy="21.0">allocation rule</tspan></text>
            </g>
            
            <g transform="translate(1230.0,760.0)">
              <rect width="350.0" height="150.0" rx="16" fill="#ffffff" stroke="#d6e0e6" filter="url(#soft-shadow)" />
              <rect x="18" y="53.0" width="44" height="44" rx="12" fill="#eef4f7" stroke="#d6e0e6" />
              <text class="subtitle" x="40.0" y="79.0" text-anchor="middle"><tspan x="40.0" dy="0.0">控</tspan></text>
              <text class="node-title" x="76.0" y="64.0" text-anchor="start"><tspan x="76.0" dy="0.0">预算与异常告警</tspan></text>
              <text class="node-subtitle" x="76.0" y="113.0" text-anchor="start"><tspan x="76.0" dy="0.0">月度预算、单用户异常、功能毛利线</tspan></text>
            </g>
            
            <g transform="translate(1610.0,760.0)">
              <rect width="350.0" height="150.0" rx="16" fill="#ffffff" stroke="#d6e0e6" filter="url(#soft-shadow)" />
              <rect x="18" y="53.0" width="44" height="44" rx="12" fill="#eef4f7" stroke="#d6e0e6" />
              <text class="subtitle" x="40.0" y="79.0" text-anchor="middle"><tspan x="40.0" dy="0.0">决</tspan></text>
              <text class="node-title" x="76.0" y="64.0" text-anchor="start"><tspan x="76.0" dy="0.0">产品与工程决策</tspan></text>
              <text class="node-subtitle" x="76.0" y="113.0" text-anchor="start"><tspan x="76.0" dy="0.0">限额、降级、路由、定价和功能取舍</tspan></text>
            </g>
            </g>
  <g><rect x="424.2" y="488.0" width="61.6" height="28.0" rx="4" fill="#f7f9fb" opacity="0.92" /><text class="edge-label" x="455.0" y="503.0" text-anchor="middle"><tspan x="455.0" dy="0.0">资源归集</tspan></text><rect x="804.2" y="488.0" width="61.6" height="28.0" rx="4" fill="#f7f9fb" opacity="0.92" /><text class="edge-label" x="835.0" y="503.0" text-anchor="middle"><tspan x="835.0" dy="0.0">服务映射</tspan></text><rect x="1184.2" y="488.0" width="61.6" height="28.0" rx="4" fill="#f7f9fb" opacity="0.92" /><text class="edge-label" x="1215.0" y="503.0" text-anchor="middle"><tspan x="1215.0" dy="0.0">功能标签</tspan></text><rect x="1564.2" y="488.0" width="61.6" height="28.0" rx="4" fill="#f7f9fb" opacity="0.92" /><text class="edge-label" x="1595.0" y="503.0" text-anchor="middle"><tspan x="1595.0" dy="0.0">业务维度</tspan></text><rect x="977.2" y="333.0" width="95.5" height="28.0" rx="4" fill="#f7f9fb" opacity="0.92" /><text class="edge-label" x="1025.0" y="348.0" text-anchor="middle"><tspan x="1025.0" dy="0.0">模型和 tokens</tspan></text><rect x="1184.2" y="333.0" width="61.6" height="28.0" rx="4" fill="#f7f9fb" opacity="0.92" /><text class="edge-label" x="1215.0" y="348.0" text-anchor="middle"><tspan x="1215.0" dy="0.0">功能标签</tspan></text><rect x="614.2" y="638.0" width="61.6" height="28.0" rx="4" fill="#f7f9fb" opacity="0.92" /><text class="edge-label" x="645.0" y="653.0" text-anchor="middle"><tspan x="645.0" dy="0.0">成本中心</tspan></text><rect x="1006.1" y="788.0" width="37.8" height="28.0" rx="4" fill="#f7f9fb" opacity="0.92" /><text class="edge-label" x="1025.0" y="803.0" text-anchor="middle"><tspan x="1025.0" dy="0.0">分摊</tspan></text><rect x="1576.1" y="638.0" width="37.8" height="28.0" rx="4" fill="#f7f9fb" opacity="0.92" /><text class="edge-label" x="1595.0" y="653.0" text-anchor="middle"><tspan x="1595.0" dy="0.0">预算</tspan></text><rect x="1564.2" y="788.0" width="61.6" height="28.0" rx="4" fill="#f7f9fb" opacity="0.92" /><text class="edge-label" x="1595.0" y="803.0" text-anchor="middle"><tspan x="1595.0" dy="0.0">治理动作</tspan></text></g>
</svg>
