<svg xmlns="http://www.w3.org/2000/svg" width="2140" height="1020" viewBox="0 0 2140 1020" role="img" aria-label="降本手段效果对比：先看量级，再看副作用">
  
    <defs>
      <filter id="soft-shadow" x="-20%" y="-20%" width="140%" height="140%">
        <feDropShadow dx="0" dy="14" stdDeviation="18" flood-color="#071018" flood-opacity="0.14" />
      </filter>
      <filter id="glow" x="-50%" y="-50%" width="200%" height="200%">
        <feGaussianBlur stdDeviation="10" result="blur" />
        <feMerge><feMergeNode in="blur" /><feMergeNode in="SourceGraphic" /></feMerge>
      </filter>
            <marker id="arrow" markerWidth="12" markerHeight="12" refX="10" refY="6" orient="auto" markerUnits="userSpaceOnUse">
        <path d="M2,2 L10,6 L2,10 Z" fill="#1f9d8a" />
      </marker>
            <marker id="arrow-muted" markerWidth="12" markerHeight="12" refX="10" refY="6" orient="auto" markerUnits="userSpaceOnUse">
        <path d="M2,2 L10,6 L2,10 Z" fill="#647485" opacity="0.35" />
      </marker>
            <marker id="dot-marker" markerWidth="8" markerHeight="8" refX="4" refY="4" orient="auto" markerUnits="userSpaceOnUse">
        <circle cx="4" cy="4" r="3" fill="#1f9d8a" />
      </marker>
            <marker id="dot-muted" markerWidth="8" markerHeight="8" refX="4" refY="4" orient="auto" markerUnits="userSpaceOnUse">
        <circle cx="4" cy="4" r="3" fill="#647485" opacity="0.35" />
      </marker>
      <linearGradient id="neural-edge" x1="0%" y1="0%" x2="100%" y2="0%">
        <stop offset="0%" stop-color="#1f9d8a" stop-opacity="0.15" />
        <stop offset="50%" stop-color="#5d74d8" stop-opacity="0.75" />
        <stop offset="100%" stop-color="#d88c3a" stop-opacity="0.2" />
      </linearGradient>
    </defs>
    
  
    <style>
      .title { font: 700 36px Inter, Segoe UI, Arial, sans-serif; fill: #17212b; }
      .subtitle { font: 500 14px Inter, Segoe UI, Arial, sans-serif; fill: #647485; }
      .node-title { font: 700 25px Inter, Segoe UI, Arial, sans-serif; fill: #17212b; }
      .node-subtitle { font: 500 16px Inter, Segoe UI, Arial, sans-serif; fill: #647485; }
      .edge-label { font: 650 14px Inter, Segoe UI, Arial, sans-serif; fill: #647485; }
      .panel-label { font: 700 14px Inter, Segoe UI, Arial, sans-serif; fill: #17212b; }
      .formula { font: 650 18px Consolas, Cascadia Mono, monospace; fill: #17212b; }
      .edge-path { fill: none; stroke: #1f9d8a; stroke-width: 2.5; marker-end: url(#arrow); }
      .edge-dot-path { fill: none; stroke: #1f9d8a; stroke-width: 2.5; marker-end: url(#dot-marker); }
      .edge-flow { stroke-dasharray: 10 12; animation: dash 1.6s linear infinite; }
      .flow-token { fill: #d88c3a; filter: url(#soft-shadow); opacity: 0.9; }
      .neuron { fill: #ffffff; stroke: #1f9d8a; stroke-width: 2; }
      .neuron.hot { animation: neuronPulse 2.4s ease-in-out infinite; }
      .neural-link { stroke: url(#neural-edge); stroke-width: 1.3; opacity: 0.42; animation: linkPulse 3.8s ease-in-out infinite; }
      .heat-cell { animation: heatShift 3.4s ease-in-out infinite; }
      @keyframes dash { to { stroke-dashoffset: -44; } }
      @keyframes neuronPulse { 0%,100% { filter: none; } 45% { filter: drop-shadow(0 0 14px #1f9d8a); } }
      @keyframes linkPulse { 0%,100% { opacity: 0.18; } 45% { opacity: 0.8; } }
      @keyframes heatShift { 0%,100% { opacity: 0.45; } 50% { opacity: 1; } }
    </style>
    
  <rect width="100%" height="100%" fill="#f7f9fb" />
  <rect x="54" y="44" width="2032" height="932" rx="28" fill="#ffffff" opacity="0.72" stroke="#d6e0e6" />
    <text class="title" x="90.0" y="100.0" text-anchor="start"><tspan x="90.0" dy="0.0">降本手段效果对比：先看量级，再看副作用</tspan></text>
    <text class="subtitle" x="92.0" y="126.0" text-anchor="start"><tspan x="92.0" dy="0.0">量化、prefix caching、请求路由、批处理和 Spot 的节省幅度、适用场景与风险不同，不能当作同一类小技巧</tspan></text>
    <line x1="92" y1="150.0" x2="2048" y2="150.0" stroke="#d6e0e6" stroke-width="1" stroke-dasharray="4 12" opacity="0.7" />
  <g><path id="edge-path-0" class="edge-path edge-flow" d="M 440.0 349.0 C 441.0 349.0, 439.0 729.0, 440.0 729.0" marker-end="url(#arrow)" /><path id="edge-path-1" class="edge-path edge-flow" d="M 830.0 349.0 C 831.0 349.0, 829.0 729.0, 830.0 729.0" marker-end="url(#arrow)" /><path id="edge-path-2" class="edge-path edge-flow" d="M 1220.0 349.0 C 892.4 349.0, 767.6 729.0, 440.0 729.0" marker-end="url(#arrow)" /><path id="edge-path-3" class="edge-path edge-flow" d="M 1220.0 349.0 C 1383.8 349.0, 1446.2 729.0, 1610.0 729.0" marker-end="url(#arrow)" /><path id="edge-path-4" class="edge-path edge-flow" d="M 1610.0 349.0 C 1282.4 349.0, 1157.6 729.0, 830.0 729.0" marker-end="url(#arrow)" /><path id="edge-path-5" class="edge-path edge-flow" d="M 2000.0 349.0 C 1672.4 349.0, 1547.6 729.0, 1220.0 729.0" marker-end="url(#arrow)" /><path id="edge-path-6" class="edge-path edge-flow" d="M 790.0 729.0 C 1134.4 729.0, 1265.6 729.0, 1610.0 729.0" marker-end="url(#arrow)" /><path id="edge-path-7" class="edge-path edge-flow" d="M 1180.0 729.0 C 1360.6 729.0, 1429.4 729.0, 1610.0 729.0" marker-end="url(#arrow)" /><path id="edge-path-8" class="edge-path edge-flow" d="M 1570.0 729.0 C 1590.0 729.0, 1590.0 729.0, 1610.0 729.0" marker-end="url(#arrow)" /></g>
  <g><circle class="flow-token" r="7"><animateMotion dur="3.2s" begin="0.00s" repeatCount="indefinite"><mpath href="#edge-path-0" /></animateMotion></circle><circle class="flow-token" r="7"><animateMotion dur="3.2s" begin="0.35s" repeatCount="indefinite"><mpath href="#edge-path-1" /></animateMotion></circle><circle class="flow-token" r="7"><animateMotion dur="3.2s" begin="0.70s" repeatCount="indefinite"><mpath href="#edge-path-2" /></animateMotion></circle><circle class="flow-token" r="7"><animateMotion dur="3.2s" begin="1.05s" repeatCount="indefinite"><mpath href="#edge-path-3" /></animateMotion></circle><circle class="flow-token" r="7"><animateMotion dur="3.2s" begin="1.40s" repeatCount="indefinite"><mpath href="#edge-path-4" /></animateMotion></circle><circle class="flow-token" r="7"><animateMotion dur="3.2s" begin="1.75s" repeatCount="indefinite"><mpath href="#edge-path-5" /></animateMotion></circle><circle class="flow-token" r="7"><animateMotion dur="3.2s" begin="2.10s" repeatCount="indefinite"><mpath href="#edge-path-6" /></animateMotion></circle><circle class="flow-token" r="7"><animateMotion dur="3.2s" begin="2.45s" repeatCount="indefinite"><mpath href="#edge-path-7" /></animateMotion></circle><circle class="flow-token" r="7"><animateMotion dur="3.2s" begin="2.80s" repeatCount="indefinite"><mpath href="#edge-path-8" /></animateMotion></circle></g>
  <g>
            <g transform="translate(90.0,270.0)">
              <rect width="350.0" height="158.0" rx="16" fill="#ffffff" stroke="#d6e0e6" filter="url(#soft-shadow)" />
              <rect x="18" y="57.0" width="44" height="44" rx="12" fill="#eef4f7" stroke="#d6e0e6" />
              <text class="subtitle" x="40.0" y="83.0" text-anchor="middle"><tspan x="40.0" dy="0.0">INT</tspan></text>
              <text class="node-title" x="76.0" y="57.5" text-anchor="start"><tspan x="76.0" dy="0.0">量化</tspan></text>
              <text class="node-subtitle" x="76.0" y="106.5" text-anchor="start"><tspan x="76.0" dy="0.0">常见目标：显存下降 40-70%</tspan><tspan x="76.0" dy="21.0">需质量门禁</tspan></text>
            </g>
            
            <g transform="translate(480.0,270.0)">
              <rect width="350.0" height="158.0" rx="16" fill="#ffffff" stroke="#d6e0e6" filter="url(#soft-shadow)" />
              <rect x="18" y="57.0" width="44" height="44" rx="12" fill="#eef4f7" stroke="#d6e0e6" />
              <text class="subtitle" x="40.0" y="83.0" text-anchor="middle"><tspan x="40.0" dy="0.0">KV</tspan></text>
              <text class="node-title" x="76.0" y="57.5" text-anchor="start"><tspan x="76.0" dy="0.0">Prefix caching</tspan></text>
              <text class="node-subtitle" x="76.0" y="106.5" text-anchor="start"><tspan x="76.0" dy="0.0">共享 system prompt/RAG</tspan><tspan x="76.0" dy="21.0">前缀时节省 10-40%</tspan></text>
            </g>
            
            <g transform="translate(870.0,270.0)">
              <rect width="350.0" height="158.0" rx="16" fill="#ffffff" stroke="#d6e0e6" filter="url(#soft-shadow)" />
              <rect x="18" y="57.0" width="44" height="44" rx="12" fill="#eef4f7" stroke="#d6e0e6" />
              <text class="subtitle" x="40.0" y="83.0" text-anchor="middle"><tspan x="40.0" dy="0.0">路</tspan></text>
              <text class="node-title" x="76.0" y="57.5" text-anchor="start"><tspan x="76.0" dy="0.0">请求路由</tspan></text>
              <text class="node-subtitle" x="76.0" y="106.5" text-anchor="start"><tspan x="76.0" dy="0.0">简单任务走小模型</tspan><tspan x="76.0" dy="21.0">成本可能降 50-70%</tspan></text>
            </g>
            
            <g transform="translate(1260.0,270.0)">
              <rect width="350.0" height="158.0" rx="16" fill="#ffffff" stroke="#d6e0e6" filter="url(#soft-shadow)" />
              <rect x="18" y="57.0" width="44" height="44" rx="12" fill="#eef4f7" stroke="#d6e0e6" />
              <text class="subtitle" x="40.0" y="83.0" text-anchor="middle"><tspan x="40.0" dy="0.0">批</tspan></text>
              <text class="node-title" x="76.0" y="57.5" text-anchor="start"><tspan x="76.0" dy="0.0">批量合并</tspan></text>
              <text class="node-subtitle" x="76.0" y="106.5" text-anchor="start"><tspan x="76.0" dy="0.0">离线任务提高利用率</tspan><tspan x="76.0" dy="21.0">常见目标 20-40%</tspan></text>
            </g>
            
            <g transform="translate(1650.0,270.0)">
              <rect width="350.0" height="158.0" rx="16" fill="#ffffff" stroke="#d6e0e6" filter="url(#soft-shadow)" />
              <rect x="18" y="57.0" width="44" height="44" rx="12" fill="#eef4f7" stroke="#d6e0e6" />
              <text class="subtitle" x="40.0" y="83.0" text-anchor="middle"><tspan x="40.0" dy="0.0">抢</tspan></text>
              <text class="node-title" x="76.0" y="57.5" text-anchor="start"><tspan x="76.0" dy="0.0">Spot / 抢占式</tspan></text>
              <text class="node-subtitle" x="76.0" y="106.5" text-anchor="start"><tspan x="76.0" dy="0.0">训练和批处理可用</tspan><tspan x="76.0" dy="21.0">中断风险必须可恢复</tspan></text>
            </g>
            
            <g transform="translate(440.0,650.0)">
              <rect width="350.0" height="158.0" rx="16" fill="#ffffff" stroke="#d6e0e6" filter="url(#soft-shadow)" />
              <rect x="18" y="57.0" width="44" height="44" rx="12" fill="#eef4f7" stroke="#d6e0e6" />
              <text class="subtitle" x="40.0" y="83.0" text-anchor="middle"><tspan x="40.0" dy="0.0">质</tspan></text>
              <text class="node-title" x="76.0" y="57.5" text-anchor="start"><tspan x="76.0" dy="0.0">质量门禁</tspan></text>
              <text class="node-subtitle" x="76.0" y="106.5" text-anchor="start"><tspan x="76.0" dy="0.0">评测集、线上采样</tspan><tspan x="76.0" dy="21.0">拒答率和人工 review</tspan></text>
            </g>
            
            <g transform="translate(830.0,650.0)">
              <rect width="350.0" height="158.0" rx="16" fill="#ffffff" stroke="#d6e0e6" filter="url(#soft-shadow)" />
              <rect x="18" y="57.0" width="44" height="44" rx="12" fill="#eef4f7" stroke="#d6e0e6" />
              <text class="subtitle" x="40.0" y="83.0" text-anchor="middle"><tspan x="40.0" dy="0.0">慢</tspan></text>
              <text class="node-title" x="76.0" y="57.5" text-anchor="start"><tspan x="76.0" dy="0.0">延迟门禁</tspan></text>
              <text class="node-subtitle" x="76.0" y="106.5" text-anchor="start"><tspan x="76.0" dy="0.0">TTFT、TPOT</tspan><tspan x="76.0" dy="21.0">队列等待不能只看均值</tspan></text>
            </g>
            
            <g transform="translate(1220.0,650.0)">
              <rect width="350.0" height="158.0" rx="16" fill="#ffffff" stroke="#d6e0e6" filter="url(#soft-shadow)" />
              <rect x="18" y="57.0" width="44" height="44" rx="12" fill="#eef4f7" stroke="#d6e0e6" />
              <text class="subtitle" x="40.0" y="83.0" text-anchor="middle"><tspan x="40.0" dy="0.0">稳</tspan></text>
              <text class="node-title" x="76.0" y="57.5" text-anchor="start"><tspan x="76.0" dy="0.0">可靠性门禁</tspan></text>
              <text class="node-subtitle" x="76.0" y="106.5" text-anchor="start"><tspan x="76.0" dy="0.0">checkpoint、重试、兜底模型</tspan><tspan x="76.0" dy="21.0">按需容量</tspan></text>
            </g>
            
            <g transform="translate(1610.0,650.0)">
              <rect width="350.0" height="158.0" rx="16" fill="#ffffff" stroke="#d6e0e6" filter="url(#soft-shadow)" />
              <rect x="18" y="57.0" width="44" height="44" rx="12" fill="#eef4f7" stroke="#d6e0e6" />
              <text class="subtitle" x="40.0" y="83.0" text-anchor="middle"><tspan x="40.0" dy="0.0">排</tspan></text>
              <text class="node-title" x="76.0" y="57.5" text-anchor="start"><tspan x="76.0" dy="0.0">排序结论</tspan></text>
              <text class="node-subtitle" x="76.0" y="106.5" text-anchor="start"><tspan x="76.0" dy="0.0">先测基线，再按收益</tspan><tspan x="76.0" dy="21.0">风险和实施成本排队</tspan></text>
            </g>
            </g>
  <g><rect x="409.2" y="492.0" width="61.6" height="28.0" rx="4" fill="#f7f9fb" opacity="0.92" /><text class="edge-label" x="440.0" y="507.0" text-anchor="middle"><tspan x="440.0" dy="0.0">精度风险</tspan></text><rect x="799.2" y="492.0" width="61.6" height="28.0" rx="4" fill="#f7f9fb" opacity="0.92" /><text class="edge-label" x="830.0" y="507.0" text-anchor="middle"><tspan x="830.0" dy="0.0">复用命中</tspan></text><rect x="805.1" y="492.0" width="49.7" height="28.0" rx="4" fill="#f7f9fb" opacity="0.92" /><text class="edge-label" x="830.0" y="507.0" text-anchor="middle"><tspan x="830.0" dy="0.0">错路由</tspan></text><rect x="1390.2" y="492.0" width="49.7" height="28.0" rx="4" fill="#f7f9fb" opacity="0.92" /><text class="edge-label" x="1415.0" y="507.0" text-anchor="middle"><tspan x="1415.0" dy="0.0">高收益</tspan></text><rect x="1189.2" y="492.0" width="61.6" height="28.0" rx="4" fill="#f7f9fb" opacity="0.92" /><text class="edge-label" x="1220.0" y="507.0" text-anchor="middle"><tspan x="1220.0" dy="0.0">排队权衡</tspan></text><rect x="1585.2" y="492.0" width="49.7" height="28.0" rx="4" fill="#f7f9fb" opacity="0.92" /><text class="edge-label" x="1610.0" y="507.0" text-anchor="middle"><tspan x="1610.0" dy="0.0">可中断</tspan></text><rect x="1175.2" y="682.0" width="49.7" height="28.0" rx="4" fill="#f7f9fb" opacity="0.92" /><text class="edge-label" x="1200.0" y="697.0" text-anchor="middle"><tspan x="1200.0" dy="0.0">过门禁</tspan></text><rect x="1370.2" y="682.0" width="49.7" height="28.0" rx="4" fill="#f7f9fb" opacity="0.92" /><text class="edge-label" x="1395.0" y="697.0" text-anchor="middle"><tspan x="1395.0" dy="0.0">过门禁</tspan></text><rect x="1565.2" y="682.0" width="49.7" height="28.0" rx="4" fill="#f7f9fb" opacity="0.92" /><text class="edge-label" x="1590.0" y="697.0" text-anchor="middle"><tspan x="1590.0" dy="0.0">可恢复</tspan></text></g>
</svg>
