<svg xmlns="http://www.w3.org/2000/svg" width="2380" height="1080" viewBox="0 0 2380 1080" role="img" aria-label="增量 Eval Set 构建：每周从线上失败样本里长出新的回归能力">
  
    <defs>
      <filter id="soft-shadow" x="-20%" y="-20%" width="140%" height="140%">
        <feDropShadow dx="0" dy="14" stdDeviation="18" flood-color="#071018" flood-opacity="0.14" />
      </filter>
      <filter id="glow" x="-50%" y="-50%" width="200%" height="200%">
        <feGaussianBlur stdDeviation="10" result="blur" />
        <feMerge><feMergeNode in="blur" /><feMergeNode in="SourceGraphic" /></feMerge>
      </filter>
            <marker id="arrow" markerWidth="12" markerHeight="12" refX="10" refY="6" orient="auto" markerUnits="userSpaceOnUse">
        <path d="M2,2 L10,6 L2,10 Z" fill="#1f9d8a" />
      </marker>
            <marker id="arrow-muted" markerWidth="12" markerHeight="12" refX="10" refY="6" orient="auto" markerUnits="userSpaceOnUse">
        <path d="M2,2 L10,6 L2,10 Z" fill="#647485" opacity="0.35" />
      </marker>
            <marker id="dot-marker" markerWidth="8" markerHeight="8" refX="4" refY="4" orient="auto" markerUnits="userSpaceOnUse">
        <circle cx="4" cy="4" r="3" fill="#1f9d8a" />
      </marker>
            <marker id="dot-muted" markerWidth="8" markerHeight="8" refX="4" refY="4" orient="auto" markerUnits="userSpaceOnUse">
        <circle cx="4" cy="4" r="3" fill="#647485" opacity="0.35" />
      </marker>
      <linearGradient id="neural-edge" x1="0%" y1="0%" x2="100%" y2="0%">
        <stop offset="0%" stop-color="#1f9d8a" stop-opacity="0.15" />
        <stop offset="50%" stop-color="#5d74d8" stop-opacity="0.75" />
        <stop offset="100%" stop-color="#d88c3a" stop-opacity="0.2" />
      </linearGradient>
    </defs>
    
  
    <style>
      .title { font: 700 36px Inter, Segoe UI, Arial, sans-serif; fill: #17212b; }
      .subtitle { font: 500 14px Inter, Segoe UI, Arial, sans-serif; fill: #647485; }
      .node-title { font: 700 25px Inter, Segoe UI, Arial, sans-serif; fill: #17212b; }
      .node-subtitle { font: 500 16px Inter, Segoe UI, Arial, sans-serif; fill: #647485; }
      .edge-label { font: 650 14px Inter, Segoe UI, Arial, sans-serif; fill: #647485; }
      .panel-label { font: 700 14px Inter, Segoe UI, Arial, sans-serif; fill: #17212b; }
      .formula { font: 650 18px Consolas, Cascadia Mono, monospace; fill: #17212b; }
      .edge-path { fill: none; stroke: #1f9d8a; stroke-width: 2.5; marker-end: url(#arrow); }
      .edge-dot-path { fill: none; stroke: #1f9d8a; stroke-width: 2.5; marker-end: url(#dot-marker); }
      .edge-flow { stroke-dasharray: 10 12; animation: dash 1.6s linear infinite; }
      .flow-token { fill: #d88c3a; filter: url(#soft-shadow); opacity: 0.9; }
      .neuron { fill: #ffffff; stroke: #1f9d8a; stroke-width: 2; }
      .neuron.hot { animation: neuronPulse 2.4s ease-in-out infinite; }
      .neural-link { stroke: url(#neural-edge); stroke-width: 1.3; opacity: 0.42; animation: linkPulse 3.8s ease-in-out infinite; }
      .heat-cell { animation: heatShift 3.4s ease-in-out infinite; }
      @keyframes dash { to { stroke-dashoffset: -44; } }
      @keyframes neuronPulse { 0%,100% { filter: none; } 45% { filter: drop-shadow(0 0 14px #1f9d8a); } }
      @keyframes linkPulse { 0%,100% { opacity: 0.18; } 45% { opacity: 0.8; } }
      @keyframes heatShift { 0%,100% { opacity: 0.45; } 50% { opacity: 1; } }
    </style>
    
  <rect width="100%" height="100%" fill="#f7f9fb" />
  <rect x="54" y="44" width="2272" height="992" rx="28" fill="#ffffff" opacity="0.72" stroke="#d6e0e6" />
    <text class="title" x="90.0" y="100.0" text-anchor="start"><tspan x="90.0" dy="0.0">增量 Eval Set 构建：每周从线上失败样本里长出新的回归能力</tspan></text>
    <text class="subtitle" x="92.0" y="126.0" text-anchor="start"><tspan x="92.0" dy="0.0">展示线上采样、自动筛选、人工 review、版本入库、覆盖率检查和 CI 回归的评测集增长流程</tspan></text>
    <line x1="92" y1="150.0" x2="2288" y2="150.0" stroke="#d6e0e6" stroke-width="1" stroke-dasharray="4 12" opacity="0.7" />
  <g><path id="edge-path-0" class="edge-path edge-flow" d="M 420.0 515.0 C 435.0 515.0, 435.0 515.0, 450.0 515.0" marker-end="url(#arrow)" /><path id="edge-path-1" class="edge-path edge-flow" d="M 790.0 515.0 C 805.0 515.0, 805.0 335.0, 820.0 335.0" marker-end="url(#arrow)" /><path id="edge-path-2" class="edge-path edge-flow" d="M 790.0 515.0 C 805.0 515.0, 805.0 695.0, 820.0 695.0" marker-end="url(#arrow)" /><path id="edge-path-3" class="edge-path edge-flow" d="M 1160.0 335.0 C 1175.0 335.0, 1175.0 515.0, 1190.0 515.0" marker-end="url(#arrow)" /><path id="edge-path-4" class="edge-path edge-flow" d="M 1160.0 695.0 C 1175.0 695.0, 1175.0 515.0, 1190.0 515.0" marker-end="url(#arrow)" /><path id="edge-path-5" class="edge-path edge-flow" d="M 1530.0 515.0 C 1545.0 515.0, 1545.0 515.0, 1560.0 515.0" marker-end="url(#arrow)" /><path id="edge-path-6" class="edge-path edge-flow" d="M 1900.0 515.0 C 1915.0 515.0, 1915.0 335.0, 1930.0 335.0" marker-end="url(#arrow)" /><path id="edge-path-7" class="edge-path edge-flow" d="M 2270.0 335.0 C 2127.2 335.0, 2072.8 695.0, 1930.0 695.0" marker-end="url(#arrow)" /><path id="edge-path-8" class="edge-path edge-flow" d="M 2270.0 695.0 C 1350.2 695.0, 999.8 515.0, 80.0 515.0" marker-end="url(#arrow)" /></g>
  <g><circle class="flow-token" r="7"><animateMotion dur="3.2s" begin="0.00s" repeatCount="indefinite"><mpath href="#edge-path-0" /></animateMotion></circle><circle class="flow-token" r="7"><animateMotion dur="3.2s" begin="0.35s" repeatCount="indefinite"><mpath href="#edge-path-1" /></animateMotion></circle><circle class="flow-token" r="7"><animateMotion dur="3.2s" begin="0.70s" repeatCount="indefinite"><mpath href="#edge-path-2" /></animateMotion></circle><circle class="flow-token" r="7"><animateMotion dur="3.2s" begin="1.05s" repeatCount="indefinite"><mpath href="#edge-path-3" /></animateMotion></circle><circle class="flow-token" r="7"><animateMotion dur="3.2s" begin="1.40s" repeatCount="indefinite"><mpath href="#edge-path-4" /></animateMotion></circle><circle class="flow-token" r="7"><animateMotion dur="3.2s" begin="1.75s" repeatCount="indefinite"><mpath href="#edge-path-5" /></animateMotion></circle><circle class="flow-token" r="7"><animateMotion dur="3.2s" begin="2.10s" repeatCount="indefinite"><mpath href="#edge-path-6" /></animateMotion></circle><circle class="flow-token" r="7"><animateMotion dur="3.2s" begin="2.45s" repeatCount="indefinite"><mpath href="#edge-path-7" /></animateMotion></circle><circle class="flow-token" r="7"><animateMotion dur="3.2s" begin="2.80s" repeatCount="indefinite"><mpath href="#edge-path-8" /></animateMotion></circle></g>
  <g>
            <g transform="translate(80.0,440.0)">
              <rect width="340.0" height="150.0" rx="16" fill="#ffffff" stroke="#d6e0e6" filter="url(#soft-shadow)" />
              <rect x="18" y="53.0" width="44" height="44" rx="12" fill="#eef4f7" stroke="#d6e0e6" />
              <text class="subtitle" x="40.0" y="79.0" text-anchor="middle"><tspan x="40.0" dy="0.0">采</tspan></text>
              <text class="node-title" x="76.0" y="53.5" text-anchor="start"><tspan x="76.0" dy="0.0">每周线上采样</tspan></text>
              <text class="node-subtitle" x="76.0" y="102.5" text-anchor="start"><tspan x="76.0" dy="0.0">随机 50-100 条 · 负反馈全量</tspan><tspan x="76.0" dy="21.0">灰度加权</tspan></text>
            </g>
            
            <g transform="translate(450.0,440.0)">
              <rect width="340.0" height="150.0" rx="16" fill="#ffffff" stroke="#d6e0e6" filter="url(#soft-shadow)" />
              <rect x="18" y="53.0" width="44" height="44" rx="12" fill="#eef4f7" stroke="#d6e0e6" />
              <text class="subtitle" x="40.0" y="79.0" text-anchor="middle"><tspan x="40.0" dy="0.0">候</tspan></text>
              <text class="node-title" x="76.0" y="53.5" text-anchor="start"><tspan x="76.0" dy="0.0">候选样本池</tspan></text>
              <text class="node-subtitle" x="76.0" y="102.5" text-anchor="start"><tspan x="76.0" dy="0.0">保留 trace、版本、feature</tspan><tspan x="76.0" dy="21.0">用户影响</tspan></text>
            </g>
            
            <g transform="translate(820.0,260.0)">
              <rect width="340.0" height="150.0" rx="16" fill="#ffffff" stroke="#d6e0e6" filter="url(#soft-shadow)" />
              <rect x="18" y="53.0" width="44" height="44" rx="12" fill="#eef4f7" stroke="#d6e0e6" />
              <text class="subtitle" x="40.0" y="79.0" text-anchor="middle"><tspan x="40.0" dy="0.0">筛</tspan></text>
              <text class="node-title" x="76.0" y="53.5" text-anchor="start"><tspan x="76.0" dy="0.0">自动筛选</tspan></text>
              <text class="node-subtitle" x="76.0" y="102.5" text-anchor="start"><tspan x="76.0" dy="0.0">规则检查、LLM-as-judge</tspan><tspan x="76.0" dy="21.0">相似样本去重</tspan></text>
            </g>
            
            <g transform="translate(820.0,620.0)">
              <rect width="340.0" height="150.0" rx="16" fill="#ffffff" stroke="#d6e0e6" filter="url(#soft-shadow)" />
              <rect x="18" y="53.0" width="44" height="44" rx="12" fill="#eef4f7" stroke="#d6e0e6" />
              <text class="subtitle" x="40.0" y="79.0" text-anchor="middle"><tspan x="40.0" dy="0.0">审</tspan></text>
              <text class="node-title" x="76.0" y="53.5" text-anchor="start"><tspan x="76.0" dy="0.0">人工 Review</tspan></text>
              <text class="node-subtitle" x="76.0" y="102.5" text-anchor="start"><tspan x="76.0" dy="0.0">相关性、准确性、完整性</tspan><tspan x="76.0" dy="21.0">根因标签</tspan></text>
            </g>
            
            <g transform="translate(1190.0,440.0)">
              <rect width="340.0" height="150.0" rx="16" fill="#ffffff" stroke="#d6e0e6" filter="url(#soft-shadow)" />
              <rect x="18" y="53.0" width="44" height="44" rx="12" fill="#eef4f7" stroke="#d6e0e6" />
              <text class="subtitle" x="40.0" y="79.0" text-anchor="middle"><tspan x="40.0" dy="0.0">覆</tspan></text>
              <text class="node-title" x="76.0" y="53.5" text-anchor="start"><tspan x="76.0" dy="0.0">覆盖率检查</tspan></text>
              <text class="node-subtitle" x="76.0" y="102.5" text-anchor="start"><tspan x="76.0" dy="0.0">任务类型、语言、租户、失败模式</tspan><tspan x="76.0" dy="21.0">长度分布</tspan></text>
            </g>
            
            <g transform="translate(1560.0,440.0)">
              <rect width="340.0" height="150.0" rx="16" fill="#ffffff" stroke="#d6e0e6" filter="url(#soft-shadow)" />
              <rect x="18" y="53.0" width="44" height="44" rx="12" fill="#eef4f7" stroke="#d6e0e6" />
              <text class="subtitle" x="40.0" y="79.0" text-anchor="middle"><tspan x="40.0" dy="0.0">版</tspan></text>
              <text class="node-title" x="76.0" y="53.5" text-anchor="start"><tspan x="76.0" dy="0.0">Eval Set 版本</tspan></text>
              <text class="node-subtitle" x="76.0" y="102.5" text-anchor="start"><tspan x="76.0" dy="0.0">v2026.05 · changelog</tspan><tspan x="76.0" dy="21.0">case_id · owner</tspan></text>
            </g>
            
            <g transform="translate(1930.0,260.0)">
              <rect width="340.0" height="150.0" rx="16" fill="#ffffff" stroke="#d6e0e6" filter="url(#soft-shadow)" />
              <rect x="18" y="53.0" width="44" height="44" rx="12" fill="#eef4f7" stroke="#d6e0e6" />
              <text class="subtitle" x="40.0" y="79.0" text-anchor="middle"><tspan x="40.0" dy="0.0">CI</tspan></text>
              <text class="node-title" x="76.0" y="53.5" text-anchor="start"><tspan x="76.0" dy="0.0">CI 回归</tspan></text>
              <text class="node-subtitle" x="76.0" y="102.5" text-anchor="start"><tspan x="76.0" dy="0.0">prompt/RAG/模型改动触发固定评</tspan><tspan x="76.0" dy="21.0">测</tspan></text>
            </g>
            
            <g transform="translate(1930.0,620.0)">
              <rect width="340.0" height="150.0" rx="16" fill="#ffffff" stroke="#d6e0e6" filter="url(#soft-shadow)" />
              <rect x="18" y="53.0" width="44" height="44" rx="12" fill="#eef4f7" stroke="#d6e0e6" />
              <text class="subtitle" x="40.0" y="79.0" text-anchor="middle"><tspan x="40.0" dy="0.0">报</tspan></text>
              <text class="node-title" x="76.0" y="53.5" text-anchor="start"><tspan x="76.0" dy="0.0">发布报告</tspan></text>
              <text class="node-subtitle" x="76.0" y="102.5" text-anchor="start"><tspan x="76.0" dy="0.0">通过率、失败 diff</tspan><tspan x="76.0" dy="21.0">人工复核和灰度建议</tspan></text>
            </g>
            </g>
  <g><rect x="416.1" y="468.0" width="37.8" height="28.0" rx="4" fill="#f7f9fb" opacity="0.92" /><text class="edge-label" x="435.0" y="483.0" text-anchor="middle"><tspan x="435.0" dy="0.0">入池</tspan></text><rect x="786.1" y="378.0" width="37.8" height="28.0" rx="4" fill="#f7f9fb" opacity="0.92" /><text class="edge-label" x="805.0" y="393.0" text-anchor="middle"><tspan x="805.0" dy="0.0">排序</tspan></text><rect x="786.1" y="558.0" width="37.8" height="28.0" rx="4" fill="#f7f9fb" opacity="0.92" /><text class="edge-label" x="805.0" y="573.0" text-anchor="middle"><tspan x="805.0" dy="0.0">抽样</tspan></text><rect x="1156.1" y="378.0" width="37.8" height="28.0" rx="4" fill="#f7f9fb" opacity="0.92" /><text class="edge-label" x="1175.0" y="393.0" text-anchor="middle"><tspan x="1175.0" dy="0.0">去重</tspan></text><rect x="1156.1" y="558.0" width="37.8" height="28.0" rx="4" fill="#f7f9fb" opacity="0.92" /><text class="edge-label" x="1175.0" y="573.0" text-anchor="middle"><tspan x="1175.0" dy="0.0">确认</tspan></text><rect x="1526.1" y="468.0" width="37.8" height="28.0" rx="4" fill="#f7f9fb" opacity="0.92" /><text class="edge-label" x="1545.0" y="483.0" text-anchor="middle"><tspan x="1545.0" dy="0.0">入库</tspan></text><rect x="1896.1" y="378.0" width="37.8" height="28.0" rx="4" fill="#f7f9fb" opacity="0.92" /><text class="edge-label" x="1915.0" y="393.0" text-anchor="middle"><tspan x="1915.0" dy="0.0">门禁</tspan></text><rect x="2081.1" y="468.0" width="37.8" height="28.0" rx="4" fill="#f7f9fb" opacity="0.92" /><text class="edge-label" x="2100.0" y="483.0" text-anchor="middle"><tspan x="2100.0" dy="0.0">结果</tspan></text><rect x="1150.2" y="558.0" width="49.7" height="28.0" rx="4" fill="#f7f9fb" opacity="0.92" /><text class="edge-label" x="1175.0" y="573.0" text-anchor="middle"><tspan x="1175.0" dy="0.0">补缺口</tspan></text></g>
</svg>
