<svg xmlns="http://www.w3.org/2000/svg" width="2320" height="1080" viewBox="0 0 2320 1080" role="img" aria-label="LLM 监控三层指标：技术、质量、成本必须同源可追踪">
  
    <defs>
      <filter id="soft-shadow" x="-20%" y="-20%" width="140%" height="140%">
        <feDropShadow dx="0" dy="14" stdDeviation="18" flood-color="#071018" flood-opacity="0.14" />
      </filter>
      <filter id="glow" x="-50%" y="-50%" width="200%" height="200%">
        <feGaussianBlur stdDeviation="10" result="blur" />
        <feMerge><feMergeNode in="blur" /><feMergeNode in="SourceGraphic" /></feMerge>
      </filter>
            <marker id="arrow" markerWidth="12" markerHeight="12" refX="10" refY="6" orient="auto" markerUnits="userSpaceOnUse">
        <path d="M2,2 L10,6 L2,10 Z" fill="#1f9d8a" />
      </marker>
            <marker id="arrow-muted" markerWidth="12" markerHeight="12" refX="10" refY="6" orient="auto" markerUnits="userSpaceOnUse">
        <path d="M2,2 L10,6 L2,10 Z" fill="#647485" opacity="0.35" />
      </marker>
            <marker id="dot-marker" markerWidth="8" markerHeight="8" refX="4" refY="4" orient="auto" markerUnits="userSpaceOnUse">
        <circle cx="4" cy="4" r="3" fill="#1f9d8a" />
      </marker>
            <marker id="dot-muted" markerWidth="8" markerHeight="8" refX="4" refY="4" orient="auto" markerUnits="userSpaceOnUse">
        <circle cx="4" cy="4" r="3" fill="#647485" opacity="0.35" />
      </marker>
      <linearGradient id="neural-edge" x1="0%" y1="0%" x2="100%" y2="0%">
        <stop offset="0%" stop-color="#1f9d8a" stop-opacity="0.15" />
        <stop offset="50%" stop-color="#5d74d8" stop-opacity="0.75" />
        <stop offset="100%" stop-color="#d88c3a" stop-opacity="0.2" />
      </linearGradient>
    </defs>
    
  
    <style>
      .title { font: 700 36px Inter, Segoe UI, Arial, sans-serif; fill: #17212b; }
      .subtitle { font: 500 14px Inter, Segoe UI, Arial, sans-serif; fill: #647485; }
      .node-title { font: 700 25px Inter, Segoe UI, Arial, sans-serif; fill: #17212b; }
      .node-subtitle { font: 500 16px Inter, Segoe UI, Arial, sans-serif; fill: #647485; }
      .edge-label { font: 650 14px Inter, Segoe UI, Arial, sans-serif; fill: #647485; }
      .panel-label { font: 700 14px Inter, Segoe UI, Arial, sans-serif; fill: #17212b; }
      .formula { font: 650 18px Consolas, Cascadia Mono, monospace; fill: #17212b; }
      .edge-path { fill: none; stroke: #1f9d8a; stroke-width: 2.5; marker-end: url(#arrow); }
      .edge-dot-path { fill: none; stroke: #1f9d8a; stroke-width: 2.5; marker-end: url(#dot-marker); }
      .edge-flow { stroke-dasharray: 10 12; animation: dash 1.6s linear infinite; }
      .flow-token { fill: #d88c3a; filter: url(#soft-shadow); opacity: 0.9; }
      .neuron { fill: #ffffff; stroke: #1f9d8a; stroke-width: 2; }
      .neuron.hot { animation: neuronPulse 2.4s ease-in-out infinite; }
      .neural-link { stroke: url(#neural-edge); stroke-width: 1.3; opacity: 0.42; animation: linkPulse 3.8s ease-in-out infinite; }
      .heat-cell { animation: heatShift 3.4s ease-in-out infinite; }
      @keyframes dash { to { stroke-dashoffset: -44; } }
      @keyframes neuronPulse { 0%,100% { filter: none; } 45% { filter: drop-shadow(0 0 14px #1f9d8a); } }
      @keyframes linkPulse { 0%,100% { opacity: 0.18; } 45% { opacity: 0.8; } }
      @keyframes heatShift { 0%,100% { opacity: 0.45; } 50% { opacity: 1; } }
    </style>
    
  <rect width="100%" height="100%" fill="#f7f9fb" />
  <rect x="54" y="44" width="2212" height="992" rx="28" fill="#ffffff" opacity="0.72" stroke="#d6e0e6" />
    <text class="title" x="90.0" y="100.0" text-anchor="start"><tspan x="90.0" dy="0.0">LLM 监控三层指标：技术、质量、成本必须同源可追踪</tspan></text>
    <text class="subtitle" x="92.0" y="126.0" text-anchor="start"><tspan x="92.0" dy="0.0">把一次 LLM 请求的元数据同时送入技术指标、质量信号和成本归因，避免 HTTP 200 掩盖软故障</tspan></text>
    <line x1="92" y1="150.0" x2="2228" y2="150.0" stroke="#d6e0e6" stroke-width="1" stroke-dasharray="4 12" opacity="0.7" />
  <g><path id="edge-path-0" class="edge-path edge-flow" d="M 450.0 548.0 C 479.4 548.0, 490.6 238.0, 520.0 238.0" marker-end="url(#arrow)" /><path id="edge-path-1" class="edge-path edge-flow" d="M 450.0 548.0 C 479.4 548.0, 490.6 548.0, 520.0 548.0" marker-end="url(#arrow)" /><path id="edge-path-2" class="edge-path edge-flow" d="M 450.0 548.0 C 479.4 548.0, 490.6 858.0, 520.0 858.0" marker-end="url(#arrow)" /><path id="edge-path-3" class="edge-path edge-flow" d="M 880.0 238.0 C 909.4 238.0, 920.6 238.0, 950.0 238.0" marker-end="url(#arrow)" /><path id="edge-path-4" class="edge-path edge-flow" d="M 880.0 548.0 C 909.4 548.0, 920.6 548.0, 950.0 548.0" marker-end="url(#arrow)" /><path id="edge-path-5" class="edge-path edge-flow" d="M 880.0 858.0 C 909.4 858.0, 920.6 858.0, 950.0 858.0" marker-end="url(#arrow)" /><path id="edge-path-6" class="edge-path edge-flow" d="M 1310.0 238.0 C 1339.4 238.0, 1350.6 238.0, 1380.0 238.0" marker-end="url(#arrow)" /><path id="edge-path-7" class="edge-path edge-flow" d="M 1310.0 548.0 C 1339.4 548.0, 1350.6 548.0, 1380.0 548.0" marker-end="url(#arrow)" /><path id="edge-path-8" class="edge-path edge-flow" d="M 1310.0 858.0 C 1339.4 858.0, 1350.6 858.0, 1380.0 858.0" marker-end="url(#arrow)" /><path id="edge-path-9" class="edge-path edge-flow" d="M 1740.0 238.0 C 1769.4 238.0, 1780.6 548.0, 1810.0 548.0" marker-end="url(#arrow)" /><path id="edge-path-10" class="edge-path edge-flow" d="M 1740.0 548.0 C 1769.4 548.0, 1780.6 548.0, 1810.0 548.0" marker-end="url(#arrow)" /><path id="edge-path-11" class="edge-path edge-flow" d="M 1740.0 858.0 C 1769.4 858.0, 1780.6 548.0, 1810.0 548.0" marker-end="url(#arrow)" /></g>
  <g><circle class="flow-token" r="7"><animateMotion dur="3.2s" begin="0.00s" repeatCount="indefinite"><mpath href="#edge-path-0" /></animateMotion></circle><circle class="flow-token" r="7"><animateMotion dur="3.2s" begin="0.35s" repeatCount="indefinite"><mpath href="#edge-path-1" /></animateMotion></circle><circle class="flow-token" r="7"><animateMotion dur="3.2s" begin="0.70s" repeatCount="indefinite"><mpath href="#edge-path-2" /></animateMotion></circle><circle class="flow-token" r="7"><animateMotion dur="3.2s" begin="1.05s" repeatCount="indefinite"><mpath href="#edge-path-3" /></animateMotion></circle><circle class="flow-token" r="7"><animateMotion dur="3.2s" begin="1.40s" repeatCount="indefinite"><mpath href="#edge-path-4" /></animateMotion></circle><circle class="flow-token" r="7"><animateMotion dur="3.2s" begin="1.75s" repeatCount="indefinite"><mpath href="#edge-path-5" /></animateMotion></circle><circle class="flow-token" r="7"><animateMotion dur="3.2s" begin="2.10s" repeatCount="indefinite"><mpath href="#edge-path-6" /></animateMotion></circle><circle class="flow-token" r="7"><animateMotion dur="3.2s" begin="2.45s" repeatCount="indefinite"><mpath href="#edge-path-7" /></animateMotion></circle><circle class="flow-token" r="7"><animateMotion dur="3.2s" begin="2.80s" repeatCount="indefinite"><mpath href="#edge-path-8" /></animateMotion></circle><circle class="flow-token" r="7"><animateMotion dur="3.2s" begin="3.15s" repeatCount="indefinite"><mpath href="#edge-path-9" /></animateMotion></circle><circle class="flow-token" r="7"><animateMotion dur="3.2s" begin="3.50s" repeatCount="indefinite"><mpath href="#edge-path-10" /></animateMotion></circle><circle class="flow-token" r="7"><animateMotion dur="3.2s" begin="3.85s" repeatCount="indefinite"><mpath href="#edge-path-11" /></animateMotion></circle></g>
  <g>
            <g transform="translate(90.0,470.0)">
              <rect width="360.0" height="156.0" rx="16" fill="#ffffff" stroke="#d6e0e6" filter="url(#soft-shadow)" />
              <rect x="18" y="56.0" width="44" height="44" rx="12" fill="#eef4f7" stroke="#d6e0e6" />
              <text class="subtitle" x="40.0" y="82.0" text-anchor="middle"><tspan x="40.0" dy="0.0">源</tspan></text>
              <text class="node-title" x="76.0" y="56.5" text-anchor="start"><tspan x="76.0" dy="0.0">请求元数据主干</tspan></text>
              <text class="node-subtitle" x="76.0" y="105.5" text-anchor="start"><tspan x="76.0" dy="0.0">request_id · tenant · model</tspan><tspan x="76.0" dy="21.0">prompt_hash · tokens</tspan></text>
            </g>
            
            <g transform="translate(520.0,160.0)">
              <rect width="360.0" height="156.0" rx="16" fill="#ffffff" stroke="#d6e0e6" filter="url(#soft-shadow)" />
              <rect x="18" y="56.0" width="44" height="44" rx="12" fill="#eef4f7" stroke="#d6e0e6" />
              <text class="subtitle" x="40.0" y="82.0" text-anchor="middle"><tspan x="40.0" dy="0.0">技</tspan></text>
              <text class="node-title" x="76.0" y="56.5" text-anchor="start"><tspan x="76.0" dy="0.0">技术层</tspan></text>
              <text class="node-subtitle" x="76.0" y="105.5" text-anchor="start"><tspan x="76.0" dy="0.0">TTFT p95/p99 · TPOT</tspan><tspan x="76.0" dy="21.0">queue length · KV 水位</tspan></text>
            </g>
            
            <g transform="translate(520.0,470.0)">
              <rect width="360.0" height="156.0" rx="16" fill="#ffffff" stroke="#d6e0e6" filter="url(#soft-shadow)" />
              <rect x="18" y="56.0" width="44" height="44" rx="12" fill="#eef4f7" stroke="#d6e0e6" />
              <text class="subtitle" x="40.0" y="82.0" text-anchor="middle"><tspan x="40.0" dy="0.0">质</tspan></text>
              <text class="node-title" x="76.0" y="56.5" text-anchor="start"><tspan x="76.0" dy="0.0">质量层</tspan></text>
              <text class="node-subtitle" x="76.0" y="105.5" text-anchor="start"><tspan x="76.0" dy="0.0">refusal rate · 反馈分</tspan><tspan x="76.0" dy="21.0">幻觉采样 · RAG 评测</tspan></text>
            </g>
            
            <g transform="translate(520.0,780.0)">
              <rect width="360.0" height="156.0" rx="16" fill="#ffffff" stroke="#d6e0e6" filter="url(#soft-shadow)" />
              <rect x="18" y="56.0" width="44" height="44" rx="12" fill="#eef4f7" stroke="#d6e0e6" />
              <text class="subtitle" x="40.0" y="82.0" text-anchor="middle"><tspan x="40.0" dy="0.0">本</tspan></text>
              <text class="node-title" x="76.0" y="56.5" text-anchor="start"><tspan x="76.0" dy="0.0">成本层</tspan></text>
              <text class="node-subtitle" x="76.0" y="105.5" text-anchor="start"><tspan x="76.0" dy="0.0">$/request · $/session</tspan><tspan x="76.0" dy="21.0">token 预算 · 功能归因</tspan></text>
            </g>
            
            <g transform="translate(950.0,160.0)">
              <rect width="360.0" height="156.0" rx="16" fill="#ffffff" stroke="#d6e0e6" filter="url(#soft-shadow)" />
              <rect x="18" y="56.0" width="44" height="44" rx="12" fill="#eef4f7" stroke="#d6e0e6" />
              <text class="subtitle" x="40.0" y="82.0" text-anchor="middle"><tspan x="40.0" dy="0.0">引擎</tspan></text>
              <text class="node-title" x="76.0" y="56.5" text-anchor="start"><tspan x="76.0" dy="0.0">推理引擎指标</tspan></text>
              <text class="node-subtitle" x="76.0" y="105.5" text-anchor="start"><tspan x="76.0" dy="0.0">vLLM/GPU/队列指标</tspan><tspan x="76.0" dy="21.0">解释慢在哪里</tspan></text>
            </g>
            
            <g transform="translate(950.0,470.0)">
              <rect width="360.0" height="156.0" rx="16" fill="#ffffff" stroke="#d6e0e6" filter="url(#soft-shadow)" />
              <rect x="18" y="56.0" width="44" height="44" rx="12" fill="#eef4f7" stroke="#d6e0e6" />
              <text class="subtitle" x="40.0" y="82.0" text-anchor="middle"><tspan x="40.0" dy="0.0">评</tspan></text>
              <text class="node-title" x="76.0" y="56.5" text-anchor="start"><tspan x="76.0" dy="0.0">线上采样评测</tspan></text>
              <text class="node-subtitle" x="76.0" y="105.5" text-anchor="start"><tspan x="76.0" dy="0.0">1-5% 抽样</tspan><tspan x="76.0" dy="21.0">规则分 + LLM-as-judge + 人审</tspan></text>
            </g>
            
            <g transform="translate(950.0,780.0)">
              <rect width="360.0" height="156.0" rx="16" fill="#ffffff" stroke="#d6e0e6" filter="url(#soft-shadow)" />
              <rect x="18" y="56.0" width="44" height="44" rx="12" fill="#eef4f7" stroke="#d6e0e6" />
              <text class="subtitle" x="40.0" y="82.0" text-anchor="middle"><tspan x="40.0" dy="0.0">账</tspan></text>
              <text class="node-title" x="76.0" y="56.5" text-anchor="start"><tspan x="76.0" dy="0.0">成本归因流水</tspan></text>
              <text class="node-subtitle" x="76.0" y="105.5" text-anchor="start"><tspan x="76.0" dy="0.0">按功能、模型</tspan><tspan x="76.0" dy="21.0">租户聚合 token 和 GPU 时间</tspan></text>
            </g>
            
            <g transform="translate(1380.0,160.0)">
              <rect width="360.0" height="156.0" rx="16" fill="#ffffff" stroke="#d6e0e6" filter="url(#soft-shadow)" />
              <rect x="18" y="56.0" width="44" height="44" rx="12" fill="#eef4f7" stroke="#d6e0e6" />
              <text class="subtitle" x="40.0" y="82.0" text-anchor="middle"><tspan x="40.0" dy="0.0">警</tspan></text>
              <text class="node-title" x="76.0" y="56.5" text-anchor="start"><tspan x="76.0" dy="0.0">SLO 与告警</tspan></text>
              <text class="node-subtitle" x="76.0" y="105.5" text-anchor="start"><tspan x="76.0" dy="0.0">阈值、趋势、异常检测</tspan><tspan x="76.0" dy="21.0">指向 runbook</tspan></text>
            </g>
            
            <g transform="translate(1380.0,470.0)">
              <rect width="360.0" height="156.0" rx="16" fill="#ffffff" stroke="#d6e0e6" filter="url(#soft-shadow)" />
              <rect x="18" y="56.0" width="44" height="44" rx="12" fill="#eef4f7" stroke="#d6e0e6" />
              <text class="subtitle" x="40.0" y="82.0" text-anchor="middle"><tspan x="40.0" dy="0.0">复</tspan></text>
              <text class="node-title" x="76.0" y="56.5" text-anchor="start"><tspan x="76.0" dy="0.0">质量复盘入口</tspan></text>
              <text class="node-subtitle" x="76.0" y="105.5" text-anchor="start"><tspan x="76.0" dy="0.0">召回漂移、拒答突增</tspan><tspan x="76.0" dy="21.0">prompt 注入信号</tspan></text>
            </g>
            
            <g transform="translate(1380.0,780.0)">
              <rect width="360.0" height="156.0" rx="16" fill="#ffffff" stroke="#d6e0e6" filter="url(#soft-shadow)" />
              <rect x="18" y="56.0" width="44" height="44" rx="12" fill="#eef4f7" stroke="#d6e0e6" />
              <text class="subtitle" x="40.0" y="82.0" text-anchor="middle"><tspan x="40.0" dy="0.0">控</tspan></text>
              <text class="node-title" x="76.0" y="56.5" text-anchor="start"><tspan x="76.0" dy="0.0">预算与限额</tspan></text>
              <text class="node-subtitle" x="76.0" y="105.5" text-anchor="start"><tspan x="76.0" dy="0.0">月度预算、单用户异常</tspan><tspan x="76.0" dy="21.0">功能成本上限</tspan></text>
            </g>
            
            <g transform="translate(1810.0,470.0)">
              <rect width="360.0" height="156.0" rx="16" fill="#ffffff" stroke="#d6e0e6" filter="url(#soft-shadow)" />
              <rect x="18" y="56.0" width="44" height="44" rx="12" fill="#eef4f7" stroke="#d6e0e6" />
              <text class="subtitle" x="40.0" y="82.0" text-anchor="middle"><tspan x="40.0" dy="0.0">看</tspan></text>
              <text class="node-title" x="76.0" y="56.5" text-anchor="start"><tspan x="76.0" dy="0.0">统一看板</tspan></text>
              <text class="node-subtitle" x="76.0" y="105.5" text-anchor="start"><tspan x="76.0" dy="0.0">同一请求可回放：慢、差</tspan><tspan x="76.0" dy="21.0">贵各自来自哪里</tspan></text>
            </g>
            </g>
  <g><rect x="454.2" y="346.0" width="61.6" height="28.0" rx="4" fill="#f7f9fb" opacity="0.92" /><text class="edge-label" x="485.0" y="361.0" text-anchor="middle"><tspan x="485.0" dy="0.0">同源维度</tspan></text><rect x="454.2" y="501.0" width="61.6" height="28.0" rx="4" fill="#f7f9fb" opacity="0.92" /><text class="edge-label" x="485.0" y="516.0" text-anchor="middle"><tspan x="485.0" dy="0.0">同源维度</tspan></text><rect x="454.2" y="656.0" width="61.6" height="28.0" rx="4" fill="#f7f9fb" opacity="0.92" /><text class="edge-label" x="485.0" y="671.0" text-anchor="middle"><tspan x="485.0" dy="0.0">同源维度</tspan></text><rect x="896.1" y="191.0" width="37.8" height="28.0" rx="4" fill="#f7f9fb" opacity="0.92" /><text class="edge-label" x="915.0" y="206.0" text-anchor="middle"><tspan x="915.0" dy="0.0">采集</tspan></text><rect x="896.1" y="501.0" width="37.8" height="28.0" rx="4" fill="#f7f9fb" opacity="0.92" /><text class="edge-label" x="915.0" y="516.0" text-anchor="middle"><tspan x="915.0" dy="0.0">抽样</tspan></text><rect x="896.1" y="811.0" width="37.8" height="28.0" rx="4" fill="#f7f9fb" opacity="0.92" /><text class="edge-label" x="915.0" y="826.0" text-anchor="middle"><tspan x="915.0" dy="0.0">聚合</tspan></text><rect x="1314.2" y="191.0" width="61.6" height="28.0" rx="4" fill="#f7f9fb" opacity="0.92" /><text class="edge-label" x="1345.0" y="206.0" text-anchor="middle"><tspan x="1345.0" dy="0.0">症状告警</tspan></text><rect x="1314.2" y="501.0" width="61.6" height="28.0" rx="4" fill="#f7f9fb" opacity="0.92" /><text class="edge-label" x="1345.0" y="516.0" text-anchor="middle"><tspan x="1345.0" dy="0.0">质量定位</tspan></text><rect x="1314.2" y="811.0" width="61.6" height="28.0" rx="4" fill="#f7f9fb" opacity="0.92" /><text class="edge-label" x="1345.0" y="826.0" text-anchor="middle"><tspan x="1345.0" dy="0.0">预算控制</tspan></text><rect x="1756.1" y="346.0" width="37.8" height="28.0" rx="4" fill="#f7f9fb" opacity="0.92" /><text class="edge-label" x="1775.0" y="361.0" text-anchor="middle"><tspan x="1775.0" dy="0.0">事件</tspan></text><rect x="1756.1" y="501.0" width="37.8" height="28.0" rx="4" fill="#f7f9fb" opacity="0.92" /><text class="edge-label" x="1775.0" y="516.0" text-anchor="middle"><tspan x="1775.0" dy="0.0">证据</tspan></text><rect x="1756.1" y="656.0" width="37.8" height="28.0" rx="4" fill="#f7f9fb" opacity="0.92" /><text class="edge-label" x="1775.0" y="671.0" text-anchor="middle"><tspan x="1775.0" dy="0.0">账单</tspan></text></g>
</svg>
