<svg xmlns="http://www.w3.org/2000/svg" width="2260" height="1180" viewBox="0 0 2260 1180" role="img" aria-label="OpenTelemetry RAG Trace：把 RAG 请求拆成 span">
  
    <defs>
      <filter id="soft-shadow" x="-20%" y="-20%" width="140%" height="140%">
        <feDropShadow dx="0" dy="14" stdDeviation="18" flood-color="#071018" flood-opacity="0.14" />
      </filter>
      <filter id="glow" x="-50%" y="-50%" width="200%" height="200%">
        <feGaussianBlur stdDeviation="10" result="blur" />
        <feMerge><feMergeNode in="blur" /><feMergeNode in="SourceGraphic" /></feMerge>
      </filter>
            <marker id="arrow" markerWidth="12" markerHeight="12" refX="10" refY="6" orient="auto" markerUnits="userSpaceOnUse">
        <path d="M2,2 L10,6 L2,10 Z" fill="#1f9d8a" />
      </marker>
            <marker id="arrow-muted" markerWidth="12" markerHeight="12" refX="10" refY="6" orient="auto" markerUnits="userSpaceOnUse">
        <path d="M2,2 L10,6 L2,10 Z" fill="#647485" opacity="0.35" />
      </marker>
            <marker id="dot-marker" markerWidth="8" markerHeight="8" refX="4" refY="4" orient="auto" markerUnits="userSpaceOnUse">
        <circle cx="4" cy="4" r="3" fill="#1f9d8a" />
      </marker>
            <marker id="dot-muted" markerWidth="8" markerHeight="8" refX="4" refY="4" orient="auto" markerUnits="userSpaceOnUse">
        <circle cx="4" cy="4" r="3" fill="#647485" opacity="0.35" />
      </marker>
      <linearGradient id="neural-edge" x1="0%" y1="0%" x2="100%" y2="0%">
        <stop offset="0%" stop-color="#1f9d8a" stop-opacity="0.15" />
        <stop offset="50%" stop-color="#5d74d8" stop-opacity="0.75" />
        <stop offset="100%" stop-color="#d88c3a" stop-opacity="0.2" />
      </linearGradient>
    </defs>
    
  
    <style>
      .title { font: 700 36px Inter, Segoe UI, Arial, sans-serif; fill: #17212b; }
      .subtitle { font: 500 14px Inter, Segoe UI, Arial, sans-serif; fill: #647485; }
      .node-title { font: 700 25px Inter, Segoe UI, Arial, sans-serif; fill: #17212b; }
      .node-subtitle { font: 500 16px Inter, Segoe UI, Arial, sans-serif; fill: #647485; }
      .edge-label { font: 650 14px Inter, Segoe UI, Arial, sans-serif; fill: #647485; }
      .panel-label { font: 700 14px Inter, Segoe UI, Arial, sans-serif; fill: #17212b; }
      .formula { font: 650 18px Consolas, Cascadia Mono, monospace; fill: #17212b; }
      .edge-path { fill: none; stroke: #1f9d8a; stroke-width: 2.5; marker-end: url(#arrow); }
      .edge-dot-path { fill: none; stroke: #1f9d8a; stroke-width: 2.5; marker-end: url(#dot-marker); }
      .edge-flow { stroke-dasharray: 10 12; animation: dash 1.6s linear infinite; }
      .flow-token { fill: #d88c3a; filter: url(#soft-shadow); opacity: 0.9; }
      .neuron { fill: #ffffff; stroke: #1f9d8a; stroke-width: 2; }
      .neuron.hot { animation: neuronPulse 2.4s ease-in-out infinite; }
      .neural-link { stroke: url(#neural-edge); stroke-width: 1.3; opacity: 0.42; animation: linkPulse 3.8s ease-in-out infinite; }
      .heat-cell { animation: heatShift 3.4s ease-in-out infinite; }
      @keyframes dash { to { stroke-dashoffset: -44; } }
      @keyframes neuronPulse { 0%,100% { filter: none; } 45% { filter: drop-shadow(0 0 14px #1f9d8a); } }
      @keyframes linkPulse { 0%,100% { opacity: 0.18; } 45% { opacity: 0.8; } }
      @keyframes heatShift { 0%,100% { opacity: 0.45; } 50% { opacity: 1; } }
    </style>
    
  <rect width="100%" height="100%" fill="#f7f9fb" />
  <rect x="54" y="44" width="2152" height="1092" rx="28" fill="#ffffff" opacity="0.72" stroke="#d6e0e6" />
    <text class="title" x="90.0" y="100.0" text-anchor="start"><tspan x="90.0" dy="0.0">OpenTelemetry RAG Trace：把 RAG 请求拆成 span</tspan></text>
    <text class="subtitle" x="92.0" y="126.0" text-anchor="start"><tspan x="92.0" dy="0.0">用 OpenTelemetry span 串起 RAG 请求，把召回、重排、上下文组装和生成的耗时与关键属性放在同一条 trace 中</tspan></text>
    <line x1="92" y1="150.0" x2="2168" y2="150.0" stroke="#d6e0e6" stroke-width="1" stroke-dasharray="4 12" opacity="0.7" />
  <g><path id="edge-path-0" class="edge-path edge-flow" d="M 1280.0 305.0 C 780.2 305.0, 589.8 595.0, 90.0 595.0" marker-end="url(#arrow)" /><path id="edge-path-1" class="edge-path edge-flow" d="M 390.0 595.0 C 419.4 595.0, 430.6 595.0, 460.0 595.0" marker-end="url(#arrow)" /><path id="edge-path-2" class="edge-path edge-flow" d="M 760.0 595.0 C 789.4 595.0, 800.6 595.0, 830.0 595.0" marker-end="url(#arrow)" /><path id="edge-path-3" class="edge-path edge-flow" d="M 1130.0 595.0 C 1159.4 595.0, 1170.6 595.0, 1200.0 595.0" marker-end="url(#arrow)" /><path id="edge-path-4" class="edge-path edge-flow" d="M 1500.0 595.0 C 1529.4 595.0, 1540.6 595.0, 1570.0 595.0" marker-end="url(#arrow)" /><path id="edge-path-5" class="edge-path edge-flow" d="M 1870.0 595.0 C 1899.4 595.0, 1910.6 595.0, 1940.0 595.0" marker-end="url(#arrow)" /><path id="edge-path-6" class="edge-path edge-flow" d="M 2240.0 595.0 C 1710.8 595.0, 1509.2 305.0, 980.0 305.0" marker-end="url(#arrow)" /><path id="edge-path-7" class="edge-path edge-flow" d="M 1130.0 595.0 C 915.8 595.0, 834.2 925.0, 620.0 925.0" marker-end="url(#arrow)" /><path id="edge-path-8" class="edge-path edge-flow" d="M 2240.0 595.0 C 1559.6 595.0, 1300.4 925.0, 620.0 925.0" marker-end="url(#arrow)" /><path id="edge-path-9" class="edge-path edge-flow" d="M 1870.0 595.0 C 1613.8 595.0, 1516.2 925.0, 1260.0 925.0" marker-end="url(#arrow)" /><path id="edge-path-10" class="edge-path edge-flow" d="M 2240.0 595.0 C 1828.4 595.0, 1671.6 925.0, 1260.0 925.0" marker-end="url(#arrow)" /><path id="edge-path-11" class="edge-path edge-flow" d="M 1280.0 305.0 C 1414.4 305.0, 1465.6 305.0, 1600.0 305.0" marker-end="url(#arrow)" /></g>
  <g><circle class="flow-token" r="7"><animateMotion dur="3.2s" begin="0.00s" repeatCount="indefinite"><mpath href="#edge-path-0" /></animateMotion></circle><circle class="flow-token" r="7"><animateMotion dur="3.2s" begin="0.35s" repeatCount="indefinite"><mpath href="#edge-path-1" /></animateMotion></circle><circle class="flow-token" r="7"><animateMotion dur="3.2s" begin="0.70s" repeatCount="indefinite"><mpath href="#edge-path-2" /></animateMotion></circle><circle class="flow-token" r="7"><animateMotion dur="3.2s" begin="1.05s" repeatCount="indefinite"><mpath href="#edge-path-3" /></animateMotion></circle><circle class="flow-token" r="7"><animateMotion dur="3.2s" begin="1.40s" repeatCount="indefinite"><mpath href="#edge-path-4" /></animateMotion></circle><circle class="flow-token" r="7"><animateMotion dur="3.2s" begin="1.75s" repeatCount="indefinite"><mpath href="#edge-path-5" /></animateMotion></circle><circle class="flow-token" r="7"><animateMotion dur="3.2s" begin="2.10s" repeatCount="indefinite"><mpath href="#edge-path-6" /></animateMotion></circle><circle class="flow-token" r="7"><animateMotion dur="3.2s" begin="2.45s" repeatCount="indefinite"><mpath href="#edge-path-7" /></animateMotion></circle><circle class="flow-token" r="7"><animateMotion dur="3.2s" begin="2.80s" repeatCount="indefinite"><mpath href="#edge-path-8" /></animateMotion></circle><circle class="flow-token" r="7"><animateMotion dur="3.2s" begin="3.15s" repeatCount="indefinite"><mpath href="#edge-path-9" /></animateMotion></circle><circle class="flow-token" r="7"><animateMotion dur="3.2s" begin="3.50s" repeatCount="indefinite"><mpath href="#edge-path-10" /></animateMotion></circle><circle class="flow-token" r="7"><animateMotion dur="3.2s" begin="3.85s" repeatCount="indefinite"><mpath href="#edge-path-11" /></animateMotion></circle></g>
  <g>
            <g transform="translate(980.0,230.0)">
              <rect width="300.0" height="150.0" rx="16" fill="#ffffff" stroke="#d6e0e6" filter="url(#soft-shadow)" />
              <rect x="18" y="53.0" width="44" height="44" rx="12" fill="#eef4f7" stroke="#d6e0e6" />
              <text class="subtitle" x="40.0" y="79.0" text-anchor="middle"><tspan x="40.0" dy="0.0">trace</tspan></text>
              <text class="node-title" x="76.0" y="39.0" text-anchor="start"><tspan x="76.0" dy="0.0">Root span:</tspan><tspan x="76.0" dy="29.0">rag.answer</tspan></text>
              <text class="node-subtitle" x="76.0" y="117.0" text-anchor="start"><tspan x="76.0" dy="0.0">request_id、tenant</tspan><tspan x="76.0" dy="21.0">session、feedback</tspan></text>
            </g>
            
            <g transform="translate(90.0,520.0)">
              <rect width="300.0" height="150.0" rx="16" fill="#ffffff" stroke="#d6e0e6" filter="url(#soft-shadow)" />
              <rect x="18" y="53.0" width="44" height="44" rx="12" fill="#eef4f7" stroke="#d6e0e6" />
              <text class="subtitle" x="40.0" y="79.0" text-anchor="middle"><tspan x="40.0" dy="0.0">01</tspan></text>
              <text class="node-title" x="76.0" y="39.0" text-anchor="start"><tspan x="76.0" dy="0.0">API / Prompt</tspan><tspan x="76.0" dy="29.0">模板</tspan></text>
              <text class="node-subtitle" x="76.0" y="117.0" text-anchor="start"><tspan x="76.0" dy="0.0">route、prompt_version</tspan><tspan x="76.0" dy="21.0">prompt_hash</tspan></text>
            </g>
            
            <g transform="translate(460.0,520.0)">
              <rect width="300.0" height="150.0" rx="16" fill="#ffffff" stroke="#d6e0e6" filter="url(#soft-shadow)" />
              <rect x="18" y="53.0" width="44" height="44" rx="12" fill="#eef4f7" stroke="#d6e0e6" />
              <text class="subtitle" x="40.0" y="79.0" text-anchor="middle"><tspan x="40.0" dy="0.0">02</tspan></text>
              <text class="node-title" x="76.0" y="53.5" text-anchor="start"><tspan x="76.0" dy="0.0">Query embedding</tspan></text>
              <text class="node-subtitle" x="76.0" y="102.5" text-anchor="start"><tspan x="76.0" dy="0.0">embedding_model</tspan><tspan x="76.0" dy="21.0">token_count、latency_ms</tspan></text>
            </g>
            
            <g transform="translate(830.0,520.0)">
              <rect width="300.0" height="150.0" rx="16" fill="#ffffff" stroke="#d6e0e6" filter="url(#soft-shadow)" />
              <rect x="18" y="53.0" width="44" height="44" rx="12" fill="#eef4f7" stroke="#d6e0e6" />
              <text class="subtitle" x="40.0" y="79.0" text-anchor="middle"><tspan x="40.0" dy="0.0">03</tspan></text>
              <text class="node-title" x="76.0" y="53.5" text-anchor="start"><tspan x="76.0" dy="0.0">向量检索</tspan></text>
              <text class="node-subtitle" x="76.0" y="102.5" text-anchor="start"><tspan x="76.0" dy="0.0">index_version、top_k</tspan><tspan x="76.0" dy="21.0">score_p50、doc_ids</tspan></text>
            </g>
            
            <g transform="translate(1200.0,520.0)">
              <rect width="300.0" height="150.0" rx="16" fill="#ffffff" stroke="#d6e0e6" filter="url(#soft-shadow)" />
              <rect x="18" y="53.0" width="44" height="44" rx="12" fill="#eef4f7" stroke="#d6e0e6" />
              <text class="subtitle" x="40.0" y="79.0" text-anchor="middle"><tspan x="40.0" dy="0.0">04</tspan></text>
              <text class="node-title" x="76.0" y="53.5" text-anchor="start"><tspan x="76.0" dy="0.0">Reranking</tspan></text>
              <text class="node-subtitle" x="76.0" y="102.5" text-anchor="start"><tspan x="76.0" dy="0.0">reranker_model</tspan><tspan x="76.0" dy="21.0">candidate_count…</tspan></text>
            </g>
            
            <g transform="translate(1570.0,520.0)">
              <rect width="300.0" height="150.0" rx="16" fill="#ffffff" stroke="#d6e0e6" filter="url(#soft-shadow)" />
              <rect x="18" y="53.0" width="44" height="44" rx="12" fill="#eef4f7" stroke="#d6e0e6" />
              <text class="subtitle" x="40.0" y="79.0" text-anchor="middle"><tspan x="40.0" dy="0.0">05</tspan></text>
              <text class="node-title" x="76.0" y="53.5" text-anchor="start"><tspan x="76.0" dy="0.0">Context 组装</tspan></text>
              <text class="node-subtitle" x="76.0" y="102.5" text-anchor="start"><tspan x="76.0" dy="0.0">context_tokens</tspan><tspan x="76.0" dy="21.0">truncation…</tspan></text>
            </g>
            
            <g transform="translate(1940.0,520.0)">
              <rect width="300.0" height="150.0" rx="16" fill="#ffffff" stroke="#d6e0e6" filter="url(#soft-shadow)" />
              <rect x="18" y="53.0" width="44" height="44" rx="12" fill="#eef4f7" stroke="#d6e0e6" />
              <text class="subtitle" x="40.0" y="79.0" text-anchor="middle"><tspan x="40.0" dy="0.0">06</tspan></text>
              <text class="node-title" x="76.0" y="53.5" text-anchor="start"><tspan x="76.0" dy="0.0">LLM 生成</tspan></text>
              <text class="node-subtitle" x="76.0" y="102.5" text-anchor="start"><tspan x="76.0" dy="0.0">model</tspan><tspan x="76.0" dy="21.0">input/output tokens…</tspan></text>
            </g>
            
            <g transform="translate(620.0,850.0)">
              <rect width="300.0" height="150.0" rx="16" fill="#ffffff" stroke="#d6e0e6" filter="url(#soft-shadow)" />
              <rect x="18" y="53.0" width="44" height="44" rx="12" fill="#eef4f7" stroke="#d6e0e6" />
              <text class="subtitle" x="40.0" y="79.0" text-anchor="middle"><tspan x="40.0" dy="0.0">慢</tspan></text>
              <text class="node-title" x="76.0" y="53.5" text-anchor="start"><tspan x="76.0" dy="0.0">慢请求定位</tspan></text>
              <text class="node-subtitle" x="76.0" y="102.5" text-anchor="start"><tspan x="76.0" dy="0.0">哪个 span 拉高</tspan><tspan x="76.0" dy="21.0">p95，一眼定位</tspan></text>
            </g>
            
            <g transform="translate(1260.0,850.0)">
              <rect width="300.0" height="150.0" rx="16" fill="#ffffff" stroke="#d6e0e6" filter="url(#soft-shadow)" />
              <rect x="18" y="53.0" width="44" height="44" rx="12" fill="#eef4f7" stroke="#d6e0e6" />
              <text class="subtitle" x="40.0" y="79.0" text-anchor="middle"><tspan x="40.0" dy="0.0">质</tspan></text>
              <text class="node-title" x="76.0" y="53.5" text-anchor="start"><tspan x="76.0" dy="0.0">质量 review</tspan></text>
              <text class="node-subtitle" x="76.0" y="102.5" text-anchor="start"><tspan x="76.0" dy="0.0">低分样本回放：召回、上下文</tspan><tspan x="76.0" dy="21.0">答案一起看</tspan></text>
            </g>
            
            <g transform="translate(1600.0,230.0)">
              <rect width="300.0" height="150.0" rx="16" fill="#ffffff" stroke="#d6e0e6" filter="url(#soft-shadow)" />
              <rect x="18" y="53.0" width="44" height="44" rx="12" fill="#eef4f7" stroke="#d6e0e6" />
              <text class="subtitle" x="40.0" y="79.0" text-anchor="middle"><tspan x="40.0" dy="0.0">保</tspan></text>
              <text class="node-title" x="76.0" y="53.5" text-anchor="start"><tspan x="76.0" dy="0.0">采样与脱敏</tspan></text>
              <text class="node-subtitle" x="76.0" y="102.5" text-anchor="start"><tspan x="76.0" dy="0.0">只保留必要字段</tspan><tspan x="76.0" dy="21.0">敏感内容按策略处理</tspan></text>
            </g>
            </g>
  <g><rect x="645.3" y="403.0" width="79.5" height="28.0" rx="4" fill="#f7f9fb" opacity="0.92" /><text class="edge-label" x="685.0" y="418.0" text-anchor="middle"><tspan x="685.0" dy="0.0">child span</tspan></text><rect x="401.6" y="548.0" width="46.7" height="28.0" rx="4" fill="#f7f9fb" opacity="0.92" /><text class="edge-label" x="425.0" y="563.0" text-anchor="middle"><tspan x="425.0" dy="0.0">query</tspan></text><rect x="768.4" y="548.0" width="53.3" height="28.0" rx="4" fill="#f7f9fb" opacity="0.92" /><text class="edge-label" x="795.0" y="563.0" text-anchor="middle"><tspan x="795.0" dy="0.0">vector</tspan></text><rect x="1125.3" y="548.0" width="79.5" height="28.0" rx="4" fill="#f7f9fb" opacity="0.92" /><text class="edge-label" x="1165.0" y="563.0" text-anchor="middle"><tspan x="1165.0" dy="0.0">candidates</tspan></text><rect x="1501.8" y="548.0" width="66.4" height="28.0" rx="4" fill="#f7f9fb" opacity="0.92" /><text class="edge-label" x="1535.0" y="563.0" text-anchor="middle"><tspan x="1535.0" dy="0.0">top docs</tspan></text><rect x="1878.4" y="548.0" width="53.3" height="28.0" rx="4" fill="#f7f9fb" opacity="0.92" /><text class="edge-label" x="1905.0" y="563.0" text-anchor="middle"><tspan x="1905.0" dy="0.0">prompt</tspan></text><rect x="1567.0" y="403.0" width="86.0" height="28.0" rx="4" fill="#f7f9fb" opacity="0.92" /><text class="edge-label" x="1610.0" y="418.0" text-anchor="middle"><tspan x="1610.0" dy="0.0">token usage</tspan></text><rect x="845.1" y="713.0" width="59.8" height="28.0" rx="4" fill="#f7f9fb" opacity="0.92" /><text class="edge-label" x="875.0" y="728.0" text-anchor="middle"><tspan x="875.0" dy="0.0">latency</tspan></text><rect x="1393.5" y="713.0" width="72.9" height="28.0" rx="4" fill="#f7f9fb" opacity="0.92" /><text class="edge-label" x="1430.0" y="728.0" text-anchor="middle"><tspan x="1430.0" dy="0.0">TTFT/TPOT</tspan></text><rect x="1535.1" y="713.0" width="59.8" height="28.0" rx="4" fill="#f7f9fb" opacity="0.92" /><text class="edge-label" x="1565.0" y="728.0" text-anchor="middle"><tspan x="1565.0" dy="0.0">context</tspan></text><rect x="1723.4" y="713.0" width="53.3" height="28.0" rx="4" fill="#f7f9fb" opacity="0.92" /><text class="edge-label" x="1750.0" y="728.0" text-anchor="middle"><tspan x="1750.0" dy="0.0">answer</tspan></text><rect x="1413.4" y="258.0" width="53.3" height="28.0" rx="4" fill="#f7f9fb" opacity="0.92" /><text class="edge-label" x="1440.0" y="273.0" text-anchor="middle"><tspan x="1440.0" dy="0.0">policy</tspan></text></g>
</svg>
