<svg xmlns="http://www.w3.org/2000/svg" width="2360" height="1080" viewBox="0 0 2360 1080" role="img" aria-label="Prompt 生命周期：从创建到线上反馈的工程化闭环">
  
    <defs>
      <filter id="soft-shadow" x="-20%" y="-20%" width="140%" height="140%">
        <feDropShadow dx="0" dy="14" stdDeviation="18" flood-color="#071018" flood-opacity="0.14" />
      </filter>
      <filter id="glow" x="-50%" y="-50%" width="200%" height="200%">
        <feGaussianBlur stdDeviation="10" result="blur" />
        <feMerge><feMergeNode in="blur" /><feMergeNode in="SourceGraphic" /></feMerge>
      </filter>
            <marker id="arrow" markerWidth="12" markerHeight="12" refX="10" refY="6" orient="auto" markerUnits="userSpaceOnUse">
        <path d="M2,2 L10,6 L2,10 Z" fill="#1f9d8a" />
      </marker>
            <marker id="arrow-muted" markerWidth="12" markerHeight="12" refX="10" refY="6" orient="auto" markerUnits="userSpaceOnUse">
        <path d="M2,2 L10,6 L2,10 Z" fill="#647485" opacity="0.35" />
      </marker>
            <marker id="dot-marker" markerWidth="8" markerHeight="8" refX="4" refY="4" orient="auto" markerUnits="userSpaceOnUse">
        <circle cx="4" cy="4" r="3" fill="#1f9d8a" />
      </marker>
            <marker id="dot-muted" markerWidth="8" markerHeight="8" refX="4" refY="4" orient="auto" markerUnits="userSpaceOnUse">
        <circle cx="4" cy="4" r="3" fill="#647485" opacity="0.35" />
      </marker>
      <linearGradient id="neural-edge" x1="0%" y1="0%" x2="100%" y2="0%">
        <stop offset="0%" stop-color="#1f9d8a" stop-opacity="0.15" />
        <stop offset="50%" stop-color="#5d74d8" stop-opacity="0.75" />
        <stop offset="100%" stop-color="#d88c3a" stop-opacity="0.2" />
      </linearGradient>
    </defs>
    
  
    <style>
      .title { font: 700 36px Inter, Segoe UI, Arial, sans-serif; fill: #17212b; }
      .subtitle { font: 500 14px Inter, Segoe UI, Arial, sans-serif; fill: #647485; }
      .node-title { font: 700 25px Inter, Segoe UI, Arial, sans-serif; fill: #17212b; }
      .node-subtitle { font: 500 16px Inter, Segoe UI, Arial, sans-serif; fill: #647485; }
      .edge-label { font: 650 14px Inter, Segoe UI, Arial, sans-serif; fill: #647485; }
      .panel-label { font: 700 14px Inter, Segoe UI, Arial, sans-serif; fill: #17212b; }
      .formula { font: 650 18px Consolas, Cascadia Mono, monospace; fill: #17212b; }
      .edge-path { fill: none; stroke: #1f9d8a; stroke-width: 2.5; marker-end: url(#arrow); }
      .edge-dot-path { fill: none; stroke: #1f9d8a; stroke-width: 2.5; marker-end: url(#dot-marker); }
      .edge-flow { stroke-dasharray: 10 12; animation: dash 1.6s linear infinite; }
      .flow-token { fill: #d88c3a; filter: url(#soft-shadow); opacity: 0.9; }
      .neuron { fill: #ffffff; stroke: #1f9d8a; stroke-width: 2; }
      .neuron.hot { animation: neuronPulse 2.4s ease-in-out infinite; }
      .neural-link { stroke: url(#neural-edge); stroke-width: 1.3; opacity: 0.42; animation: linkPulse 3.8s ease-in-out infinite; }
      .heat-cell { animation: heatShift 3.4s ease-in-out infinite; }
      @keyframes dash { to { stroke-dashoffset: -44; } }
      @keyframes neuronPulse { 0%,100% { filter: none; } 45% { filter: drop-shadow(0 0 14px #1f9d8a); } }
      @keyframes linkPulse { 0%,100% { opacity: 0.18; } 45% { opacity: 0.8; } }
      @keyframes heatShift { 0%,100% { opacity: 0.45; } 50% { opacity: 1; } }
    </style>
    
  <rect width="100%" height="100%" fill="#f7f9fb" />
  <rect x="54" y="44" width="2252" height="992" rx="28" fill="#ffffff" opacity="0.72" stroke="#d6e0e6" />
    <text class="title" x="90.0" y="100.0" text-anchor="start"><tspan x="90.0" dy="0.0">Prompt 生命周期：从创建到线上反馈的工程化闭环</tspan></text>
    <text class="subtitle" x="92.0" y="126.0" text-anchor="start"><tspan x="92.0" dy="0.0">展示 prompt 如何像生产代码一样经历本地测试、回归、灰度、监控和失败样本回流</tspan></text>
    <line x1="92" y1="150.0" x2="2268" y2="150.0" stroke="#d6e0e6" stroke-width="1" stroke-dasharray="4 12" opacity="0.7" />
  <g><path id="edge-path-0" class="edge-path edge-flow" d="M 410.0 515.0 C 430.0 515.0, 430.0 515.0, 450.0 515.0" marker-end="url(#arrow)" /><path id="edge-path-1" class="edge-path edge-flow" d="M 780.0 515.0 C 800.0 515.0, 800.0 335.0, 820.0 335.0" marker-end="url(#arrow)" /><path id="edge-path-2" class="edge-path edge-flow" d="M 780.0 515.0 C 800.0 515.0, 800.0 695.0, 820.0 695.0" marker-end="url(#arrow)" /><path id="edge-path-3" class="edge-path edge-flow" d="M 1150.0 335.0 C 1170.0 335.0, 1170.0 515.0, 1190.0 515.0" marker-end="url(#arrow)" /><path id="edge-path-4" class="edge-path edge-flow" d="M 1150.0 695.0 C 1170.0 695.0, 1170.0 515.0, 1190.0 515.0" marker-end="url(#arrow)" /><path id="edge-path-5" class="edge-path edge-flow" d="M 1520.0 515.0 C 1540.0 515.0, 1540.0 515.0, 1560.0 515.0" marker-end="url(#arrow)" /><path id="edge-path-6" class="edge-path edge-flow" d="M 1890.0 515.0 C 1910.0 515.0, 1910.0 335.0, 1930.0 335.0" marker-end="url(#arrow)" /><path id="edge-path-7" class="edge-path edge-flow" d="M 2260.0 335.0 C 2121.4 335.0, 2068.6 695.0, 1930.0 695.0" marker-end="url(#arrow)" /><path id="edge-path-8" class="edge-path edge-flow" d="M 2260.0 695.0 C 1499.8 695.0, 1210.2 515.0, 450.0 515.0" marker-end="url(#arrow)" /></g>
  <g><circle class="flow-token" r="7"><animateMotion dur="3.2s" begin="0.00s" repeatCount="indefinite"><mpath href="#edge-path-0" /></animateMotion></circle><circle class="flow-token" r="7"><animateMotion dur="3.2s" begin="0.35s" repeatCount="indefinite"><mpath href="#edge-path-1" /></animateMotion></circle><circle class="flow-token" r="7"><animateMotion dur="3.2s" begin="0.70s" repeatCount="indefinite"><mpath href="#edge-path-2" /></animateMotion></circle><circle class="flow-token" r="7"><animateMotion dur="3.2s" begin="1.05s" repeatCount="indefinite"><mpath href="#edge-path-3" /></animateMotion></circle><circle class="flow-token" r="7"><animateMotion dur="3.2s" begin="1.40s" repeatCount="indefinite"><mpath href="#edge-path-4" /></animateMotion></circle><circle class="flow-token" r="7"><animateMotion dur="3.2s" begin="1.75s" repeatCount="indefinite"><mpath href="#edge-path-5" /></animateMotion></circle><circle class="flow-token" r="7"><animateMotion dur="3.2s" begin="2.10s" repeatCount="indefinite"><mpath href="#edge-path-6" /></animateMotion></circle><circle class="flow-token" r="7"><animateMotion dur="3.2s" begin="2.45s" repeatCount="indefinite"><mpath href="#edge-path-7" /></animateMotion></circle><circle class="flow-token" r="7"><animateMotion dur="3.2s" begin="2.80s" repeatCount="indefinite"><mpath href="#edge-path-8" /></animateMotion></circle></g>
  <g>
            <g transform="translate(80.0,440.0)">
              <rect width="330.0" height="150.0" rx="16" fill="#ffffff" stroke="#d6e0e6" filter="url(#soft-shadow)" />
              <rect x="18" y="53.0" width="44" height="44" rx="12" fill="#eef4f7" stroke="#d6e0e6" />
              <text class="subtitle" x="40.0" y="79.0" text-anchor="middle"><tspan x="40.0" dy="0.0">建</tspan></text>
              <text class="node-title" x="76.0" y="53.5" text-anchor="start"><tspan x="76.0" dy="0.0">创建 Prompt</tspan></text>
              <text class="node-subtitle" x="76.0" y="102.5" text-anchor="start"><tspan x="76.0" dy="0.0">任务目标、变量</tspan><tspan x="76.0" dy="21.0">输出格式和边界条件</tspan></text>
            </g>
            
            <g transform="translate(450.0,440.0)">
              <rect width="330.0" height="150.0" rx="16" fill="#ffffff" stroke="#d6e0e6" filter="url(#soft-shadow)" />
              <rect x="18" y="53.0" width="44" height="44" rx="12" fill="#eef4f7" stroke="#d6e0e6" />
              <text class="subtitle" x="40.0" y="79.0" text-anchor="middle"><tspan x="40.0" dy="0.0">元</tspan></text>
              <text class="node-title" x="76.0" y="53.5" text-anchor="start"><tspan x="76.0" dy="0.0">写入元数据</tspan></text>
              <text class="node-subtitle" x="76.0" y="102.5" text-anchor="start"><tspan x="76.0" dy="0.0">name、version、model</tspan><tspan x="76.0" dy="21.0">variables、owner</tspan></text>
            </g>
            
            <g transform="translate(820.0,260.0)">
              <rect width="330.0" height="150.0" rx="16" fill="#ffffff" stroke="#d6e0e6" filter="url(#soft-shadow)" />
              <rect x="18" y="53.0" width="44" height="44" rx="12" fill="#eef4f7" stroke="#d6e0e6" />
              <text class="subtitle" x="40.0" y="79.0" text-anchor="middle"><tspan x="40.0" dy="0.0">本</tspan></text>
              <text class="node-title" x="76.0" y="53.5" text-anchor="start"><tspan x="76.0" dy="0.0">本地样例测试</tspan></text>
              <text class="node-subtitle" x="76.0" y="102.5" text-anchor="start"><tspan x="76.0" dy="0.0">变量注入、格式检查</tspan><tspan x="76.0" dy="21.0">典型输入输出</tspan></text>
            </g>
            
            <g transform="translate(820.0,620.0)">
              <rect width="330.0" height="150.0" rx="16" fill="#ffffff" stroke="#d6e0e6" filter="url(#soft-shadow)" />
              <rect x="18" y="53.0" width="44" height="44" rx="12" fill="#eef4f7" stroke="#d6e0e6" />
              <text class="subtitle" x="40.0" y="79.0" text-anchor="middle"><tspan x="40.0" dy="0.0">回</tspan></text>
              <text class="node-title" x="76.0" y="53.5" text-anchor="start"><tspan x="76.0" dy="0.0">回归测试</tspan></text>
              <text class="node-subtitle" x="76.0" y="102.5" text-anchor="start"><tspan x="76.0" dy="0.0">20-50 条核心样例</tspan><tspan x="76.0" dy="21.0">自动评测 + 人审</tspan></text>
            </g>
            
            <g transform="translate(1190.0,440.0)">
              <rect width="330.0" height="150.0" rx="16" fill="#ffffff" stroke="#d6e0e6" filter="url(#soft-shadow)" />
              <rect x="18" y="53.0" width="44" height="44" rx="12" fill="#eef4f7" stroke="#d6e0e6" />
              <text class="subtitle" x="40.0" y="79.0" text-anchor="middle"><tspan x="40.0" dy="0.0">灰</tspan></text>
              <text class="node-title" x="76.0" y="53.5" text-anchor="start"><tspan x="76.0" dy="0.0">灰度发布</tspan></text>
              <text class="node-subtitle" x="76.0" y="102.5" text-anchor="start"><tspan x="76.0" dy="0.0">10% 稳定分流</tspan><tspan x="76.0" dy="21.0">保留旧版本回滚</tspan></text>
            </g>
            
            <g transform="translate(1560.0,440.0)">
              <rect width="330.0" height="150.0" rx="16" fill="#ffffff" stroke="#d6e0e6" filter="url(#soft-shadow)" />
              <rect x="18" y="53.0" width="44" height="44" rx="12" fill="#eef4f7" stroke="#d6e0e6" />
              <text class="subtitle" x="40.0" y="79.0" text-anchor="middle"><tspan x="40.0" dy="0.0">看</tspan></text>
              <text class="node-title" x="76.0" y="53.5" text-anchor="start"><tspan x="76.0" dy="0.0">线上监控</tspan></text>
              <text class="node-subtitle" x="76.0" y="102.5" text-anchor="start"><tspan x="76.0" dy="0.0">refusal、反馈分、输出长度</tspan><tspan x="76.0" dy="21.0">TTFT、成本</tspan></text>
            </g>
            
            <g transform="translate(1930.0,260.0)">
              <rect width="330.0" height="150.0" rx="16" fill="#ffffff" stroke="#d6e0e6" filter="url(#soft-shadow)" />
              <rect x="18" y="53.0" width="44" height="44" rx="12" fill="#eef4f7" stroke="#d6e0e6" />
              <text class="subtitle" x="40.0" y="79.0" text-anchor="middle"><tspan x="40.0" dy="0.0">样</tspan></text>
              <text class="node-title" x="76.0" y="53.5" text-anchor="start"><tspan x="76.0" dy="0.0">失败样本收集</tspan></text>
              <text class="node-subtitle" x="76.0" y="102.5" text-anchor="start"><tspan x="76.0" dy="0.0">负反馈、低分评测</tspan><tspan x="76.0" dy="21.0">边界 case 入库</tspan></text>
            </g>
            
            <g transform="translate(1930.0,620.0)">
              <rect width="330.0" height="150.0" rx="16" fill="#ffffff" stroke="#d6e0e6" filter="url(#soft-shadow)" />
              <rect x="18" y="53.0" width="44" height="44" rx="12" fill="#eef4f7" stroke="#d6e0e6" />
              <text class="subtitle" x="40.0" y="79.0" text-anchor="middle"><tspan x="40.0" dy="0.0">迭</tspan></text>
              <text class="node-title" x="76.0" y="53.5" text-anchor="start"><tspan x="76.0" dy="0.0">下一版本</tspan></text>
              <text class="node-subtitle" x="76.0" y="102.5" text-anchor="start"><tspan x="76.0" dy="0.0">修 prompt、补样例</tspan><tspan x="76.0" dy="21.0">调整变量或模型适配</tspan></text>
            </g>
            </g>
  <g><rect x="405.1" y="468.0" width="49.7" height="28.0" rx="4" fill="#f7f9fb" opacity="0.92" /><text class="edge-label" x="430.0" y="483.0" text-anchor="middle"><tspan x="430.0" dy="0.0">资产化</tspan></text><rect x="769.2" y="378.0" width="61.6" height="28.0" rx="4" fill="#f7f9fb" opacity="0.92" /><text class="edge-label" x="800.0" y="393.0" text-anchor="middle"><tspan x="800.0" dy="0.0">快速检查</tspan></text><rect x="781.1" y="558.0" width="37.8" height="28.0" rx="4" fill="#f7f9fb" opacity="0.92" /><text class="edge-label" x="800.0" y="573.0" text-anchor="middle"><tspan x="800.0" dy="0.0">回归</tspan></text><rect x="1151.1" y="378.0" width="37.8" height="28.0" rx="4" fill="#f7f9fb" opacity="0.92" /><text class="edge-label" x="1170.0" y="393.0" text-anchor="middle"><tspan x="1170.0" dy="0.0">通过</tspan></text><rect x="1151.1" y="558.0" width="37.8" height="28.0" rx="4" fill="#f7f9fb" opacity="0.92" /><text class="edge-label" x="1170.0" y="573.0" text-anchor="middle"><tspan x="1170.0" dy="0.0">达标</tspan></text><rect x="1515.2" y="468.0" width="49.7" height="28.0" rx="4" fill="#f7f9fb" opacity="0.92" /><text class="edge-label" x="1540.0" y="483.0" text-anchor="middle"><tspan x="1540.0" dy="0.0">接流量</tspan></text><rect x="1891.1" y="378.0" width="37.8" height="28.0" rx="4" fill="#f7f9fb" opacity="0.92" /><text class="edge-label" x="1910.0" y="393.0" text-anchor="middle"><tspan x="1910.0" dy="0.0">采样</tspan></text><rect x="2076.1" y="468.0" width="37.8" height="28.0" rx="4" fill="#f7f9fb" opacity="0.92" /><text class="edge-label" x="2095.0" y="483.0" text-anchor="middle"><tspan x="2095.0" dy="0.0">沉淀</tspan></text><rect x="1330.2" y="558.0" width="49.7" height="28.0" rx="4" fill="#f7f9fb" opacity="0.92" /><text class="edge-label" x="1355.0" y="573.0" text-anchor="middle"><tspan x="1355.0" dy="0.0">新版本</tspan></text></g>
</svg>
