<svg xmlns="http://www.w3.org/2000/svg" width="1880" height="1060" viewBox="0 0 1880 1060" role="img" aria-label="RAG 生产架构：离线摄入和在线问答是两条链路">
  
    <defs>
      <filter id="soft-shadow" x="-20%" y="-20%" width="140%" height="140%">
        <feDropShadow dx="0" dy="14" stdDeviation="18" flood-color="#071018" flood-opacity="0.14" />
      </filter>
      <filter id="glow" x="-50%" y="-50%" width="200%" height="200%">
        <feGaussianBlur stdDeviation="10" result="blur" />
        <feMerge><feMergeNode in="blur" /><feMergeNode in="SourceGraphic" /></feMerge>
      </filter>
            <marker id="arrow" markerWidth="12" markerHeight="12" refX="10" refY="6" orient="auto" markerUnits="userSpaceOnUse">
        <path d="M2,2 L10,6 L2,10 Z" fill="#1f9d8a" />
      </marker>
            <marker id="arrow-muted" markerWidth="12" markerHeight="12" refX="10" refY="6" orient="auto" markerUnits="userSpaceOnUse">
        <path d="M2,2 L10,6 L2,10 Z" fill="#647485" opacity="0.35" />
      </marker>
            <marker id="dot-marker" markerWidth="8" markerHeight="8" refX="4" refY="4" orient="auto" markerUnits="userSpaceOnUse">
        <circle cx="4" cy="4" r="3" fill="#1f9d8a" />
      </marker>
            <marker id="dot-muted" markerWidth="8" markerHeight="8" refX="4" refY="4" orient="auto" markerUnits="userSpaceOnUse">
        <circle cx="4" cy="4" r="3" fill="#647485" opacity="0.35" />
      </marker>
      <linearGradient id="neural-edge" x1="0%" y1="0%" x2="100%" y2="0%">
        <stop offset="0%" stop-color="#1f9d8a" stop-opacity="0.15" />
        <stop offset="50%" stop-color="#5d74d8" stop-opacity="0.75" />
        <stop offset="100%" stop-color="#d88c3a" stop-opacity="0.2" />
      </linearGradient>
    </defs>
    
  
    <style>
      .title { font: 700 36px Inter, Segoe UI, Arial, sans-serif; fill: #17212b; }
      .subtitle { font: 500 14px Inter, Segoe UI, Arial, sans-serif; fill: #647485; }
      .node-title { font: 700 25px Inter, Segoe UI, Arial, sans-serif; fill: #17212b; }
      .node-subtitle { font: 500 16px Inter, Segoe UI, Arial, sans-serif; fill: #647485; }
      .edge-label { font: 650 14px Inter, Segoe UI, Arial, sans-serif; fill: #647485; }
      .panel-label { font: 700 14px Inter, Segoe UI, Arial, sans-serif; fill: #17212b; }
      .formula { font: 650 18px Consolas, Cascadia Mono, monospace; fill: #17212b; }
      .edge-path { fill: none; stroke: #1f9d8a; stroke-width: 2.5; marker-end: url(#arrow); }
      .edge-dot-path { fill: none; stroke: #1f9d8a; stroke-width: 2.5; marker-end: url(#dot-marker); }
      .edge-flow { stroke-dasharray: 10 12; animation: dash 1.6s linear infinite; }
      .flow-token { fill: #d88c3a; filter: url(#soft-shadow); opacity: 0.9; }
      .neuron { fill: #ffffff; stroke: #1f9d8a; stroke-width: 2; }
      .neuron.hot { animation: neuronPulse 2.4s ease-in-out infinite; }
      .neural-link { stroke: url(#neural-edge); stroke-width: 1.3; opacity: 0.42; animation: linkPulse 3.8s ease-in-out infinite; }
      .heat-cell { animation: heatShift 3.4s ease-in-out infinite; }
      @keyframes dash { to { stroke-dashoffset: -44; } }
      @keyframes neuronPulse { 0%,100% { filter: none; } 45% { filter: drop-shadow(0 0 14px #1f9d8a); } }
      @keyframes linkPulse { 0%,100% { opacity: 0.18; } 45% { opacity: 0.8; } }
      @keyframes heatShift { 0%,100% { opacity: 0.45; } 50% { opacity: 1; } }
    </style>
    
  <rect width="100%" height="100%" fill="#f7f9fb" />
  <rect x="54" y="44" width="1772" height="972" rx="28" fill="#ffffff" opacity="0.72" stroke="#d6e0e6" />
    <text class="title" x="90.0" y="100.0" text-anchor="start"><tspan x="90.0" dy="0.0">RAG 生产架构：离线摄入和在线问答是两条链路</tspan></text>
    <text class="subtitle" x="92.0" y="126.0" text-anchor="start"><tspan x="92.0" dy="0.0">同一个 RAG 系统里，离线数据链路决定召回上限，在线服务链路决定用户感知和可观测性</tspan></text>
    <line x1="92" y1="150.0" x2="1788" y2="150.0" stroke="#d6e0e6" stroke-width="1" stroke-dasharray="4 12" opacity="0.7" />
  <g><path id="edge-path-0" class="edge-path edge-flow" d="M 390.0 301.0 C 410.0 301.0, 410.0 301.0, 430.0 301.0" marker-end="url(#arrow)" /><path id="edge-path-1" class="edge-path edge-flow" d="M 730.0 301.0 C 750.0 301.0, 750.0 301.0, 770.0 301.0" marker-end="url(#arrow)" /><path id="edge-path-2" class="edge-path edge-flow" d="M 1070.0 301.0 C 1090.0 301.0, 1090.0 301.0, 1110.0 301.0" marker-end="url(#arrow)" /><path id="edge-path-3" class="edge-path edge-flow" d="M 1410.0 301.0 C 1430.0 301.0, 1430.0 301.0, 1450.0 301.0" marker-end="url(#arrow)" /><path id="edge-path-4" class="edge-path edge-flow" d="M 390.0 681.0 C 410.0 681.0, 410.0 681.0, 430.0 681.0" marker-end="url(#arrow)" /><path id="edge-path-5" class="edge-path edge-flow" d="M 730.0 681.0 C 750.0 681.0, 750.0 681.0, 770.0 681.0" marker-end="url(#arrow)" /><path id="edge-path-6" class="edge-path edge-flow" d="M 1750.0 301.0 C 1338.4 301.0, 1181.6 681.0, 770.0 681.0" marker-end="url(#arrow)" /><path id="edge-path-7" class="edge-path edge-flow" d="M 1070.0 681.0 C 1090.0 681.0, 1090.0 681.0, 1110.0 681.0" marker-end="url(#arrow)" /><path id="edge-path-8" class="edge-path edge-flow" d="M 1410.0 681.0 C 1430.0 681.0, 1430.0 681.0, 1450.0 681.0" marker-end="url(#arrow)" /><path id="edge-path-9" class="edge-path edge-flow" d="M 1750.0 681.0 C 1481.2 681.0, 1378.8 901.0, 1110.0 901.0" marker-end="url(#arrow)" /><path id="edge-path-10" class="edge-path edge-flow" d="M 1410.0 901.0 C 1430.0 901.0, 1430.0 301.0, 1450.0 301.0" marker-end="url(#arrow)" /></g>
  <g><circle class="flow-token" r="7"><animateMotion dur="3.2s" begin="0.00s" repeatCount="indefinite"><mpath href="#edge-path-0" /></animateMotion></circle><circle class="flow-token" r="7"><animateMotion dur="3.2s" begin="0.35s" repeatCount="indefinite"><mpath href="#edge-path-1" /></animateMotion></circle><circle class="flow-token" r="7"><animateMotion dur="3.2s" begin="0.70s" repeatCount="indefinite"><mpath href="#edge-path-2" /></animateMotion></circle><circle class="flow-token" r="7"><animateMotion dur="3.2s" begin="1.05s" repeatCount="indefinite"><mpath href="#edge-path-3" /></animateMotion></circle><circle class="flow-token" r="7"><animateMotion dur="3.2s" begin="1.40s" repeatCount="indefinite"><mpath href="#edge-path-4" /></animateMotion></circle><circle class="flow-token" r="7"><animateMotion dur="3.2s" begin="1.75s" repeatCount="indefinite"><mpath href="#edge-path-5" /></animateMotion></circle><circle class="flow-token" r="7"><animateMotion dur="3.2s" begin="2.10s" repeatCount="indefinite"><mpath href="#edge-path-6" /></animateMotion></circle><circle class="flow-token" r="7"><animateMotion dur="3.2s" begin="2.45s" repeatCount="indefinite"><mpath href="#edge-path-7" /></animateMotion></circle><circle class="flow-token" r="7"><animateMotion dur="3.2s" begin="2.80s" repeatCount="indefinite"><mpath href="#edge-path-8" /></animateMotion></circle><circle class="flow-token" r="7"><animateMotion dur="3.2s" begin="3.15s" repeatCount="indefinite"><mpath href="#edge-path-9" /></animateMotion></circle><circle class="flow-token" r="7"><animateMotion dur="3.2s" begin="3.50s" repeatCount="indefinite"><mpath href="#edge-path-10" /></animateMotion></circle></g>
  <g>
            <g transform="translate(90.0,230.0)">
              <rect width="300.0" height="142.0" rx="16" fill="#ffffff" stroke="#d6e0e6" filter="url(#soft-shadow)" />
              <rect x="18" y="49.0" width="44" height="44" rx="12" fill="#eef4f7" stroke="#d6e0e6" />
              <text class="subtitle" x="40.0" y="75.0" text-anchor="middle"><tspan x="40.0" dy="0.0">源</tspan></text>
              <text class="node-title" x="76.0" y="49.5" text-anchor="start"><tspan x="76.0" dy="0.0">原始文档</tspan></text>
              <text class="node-subtitle" x="76.0" y="98.5" text-anchor="start"><tspan x="76.0" dy="0.0">PDF/HTML/代码文档</tspan><tspan x="76.0" dy="21.0">表格和噪声先暴露</tspan></text>
            </g>
            
            <g transform="translate(430.0,230.0)">
              <rect width="300.0" height="142.0" rx="16" fill="#ffffff" stroke="#d6e0e6" filter="url(#soft-shadow)" />
              <rect x="18" y="49.0" width="44" height="44" rx="12" fill="#eef4f7" stroke="#d6e0e6" />
              <text class="subtitle" x="40.0" y="75.0" text-anchor="middle"><tspan x="40.0" dy="0.0">01</tspan></text>
              <text class="node-title" x="76.0" y="60.0" text-anchor="start"><tspan x="76.0" dy="0.0">解析清洗</tspan></text>
              <text class="node-subtitle" x="76.0" y="109.0" text-anchor="start"><tspan x="76.0" dy="0.0">结构丢失会直接压低召回上限</tspan></text>
            </g>
            
            <g transform="translate(770.0,230.0)">
              <rect width="300.0" height="142.0" rx="16" fill="#ffffff" stroke="#d6e0e6" filter="url(#soft-shadow)" />
              <rect x="18" y="49.0" width="44" height="44" rx="12" fill="#eef4f7" stroke="#d6e0e6" />
              <text class="subtitle" x="40.0" y="75.0" text-anchor="middle"><tspan x="40.0" dy="0.0">02</tspan></text>
              <text class="node-title" x="76.0" y="49.5" text-anchor="start"><tspan x="76.0" dy="0.0">Chunk 策略</tspan></text>
              <text class="node-subtitle" x="76.0" y="98.5" text-anchor="start"><tspan x="76.0" dy="0.0">大小、重叠</tspan><tspan x="76.0" dy="21.0">语义边界决定上下文</tspan></text>
            </g>
            
            <g transform="translate(1110.0,230.0)">
              <rect width="300.0" height="142.0" rx="16" fill="#ffffff" stroke="#d6e0e6" filter="url(#soft-shadow)" />
              <rect x="18" y="49.0" width="44" height="44" rx="12" fill="#eef4f7" stroke="#d6e0e6" />
              <text class="subtitle" x="40.0" y="75.0" text-anchor="middle"><tspan x="40.0" dy="0.0">03</tspan></text>
              <text class="node-title" x="76.0" y="45.5" text-anchor="start"><tspan x="76.0" dy="0.0">Embedding</tspan><tspan x="76.0" dy="29.0">批处理</tspan></text>
              <text class="node-subtitle" x="76.0" y="123.5" text-anchor="start"><tspan x="76.0" dy="0.0">模型版本改变后索引要重建</tspan></text>
            </g>
            
            <g transform="translate(1450.0,230.0)">
              <rect width="300.0" height="142.0" rx="16" fill="#ffffff" stroke="#d6e0e6" filter="url(#soft-shadow)" />
              <rect x="18" y="49.0" width="44" height="44" rx="12" fill="#eef4f7" stroke="#d6e0e6" />
              <text class="subtitle" x="40.0" y="75.0" text-anchor="middle"><tspan x="40.0" dy="0.0">制</tspan></text>
              <text class="node-title" x="76.0" y="49.5" text-anchor="start"><tspan x="76.0" dy="0.0">向量索引</tspan></text>
              <text class="node-subtitle" x="76.0" y="98.5" text-anchor="start"><tspan x="76.0" dy="0.0">向量、元数据过滤</tspan><tspan x="76.0" dy="21.0">版本一起治理</tspan></text>
            </g>
            
            <g transform="translate(90.0,610.0)">
              <rect width="300.0" height="142.0" rx="16" fill="#ffffff" stroke="#d6e0e6" filter="url(#soft-shadow)" />
              <rect x="18" y="49.0" width="44" height="44" rx="12" fill="#eef4f7" stroke="#d6e0e6" />
              <text class="subtitle" x="40.0" y="75.0" text-anchor="middle"><tspan x="40.0" dy="0.0">问</tspan></text>
              <text class="node-title" x="76.0" y="49.5" text-anchor="start"><tspan x="76.0" dy="0.0">用户问题</tspan></text>
              <text class="node-subtitle" x="76.0" y="98.5" text-anchor="start"><tspan x="76.0" dy="0.0">线上入口</tspan><tspan x="76.0" dy="21.0">记录 query 和请求上下文</tspan></text>
            </g>
            
            <g transform="translate(430.0,610.0)">
              <rect width="300.0" height="142.0" rx="16" fill="#ffffff" stroke="#d6e0e6" filter="url(#soft-shadow)" />
              <rect x="18" y="49.0" width="44" height="44" rx="12" fill="#eef4f7" stroke="#d6e0e6" />
              <text class="subtitle" x="40.0" y="75.0" text-anchor="middle"><tspan x="40.0" dy="0.0">04</tspan></text>
              <text class="node-title" x="76.0" y="49.5" text-anchor="start"><tspan x="76.0" dy="0.0">Query embedding</tspan></text>
              <text class="node-subtitle" x="76.0" y="98.5" text-anchor="start"><tspan x="76.0" dy="0.0">必须与索引 embedding</tspan><tspan x="76.0" dy="21.0">版本匹配</tspan></text>
            </g>
            
            <g transform="translate(770.0,610.0)">
              <rect width="300.0" height="142.0" rx="16" fill="#ffffff" stroke="#d6e0e6" filter="url(#soft-shadow)" />
              <rect x="18" y="49.0" width="44" height="44" rx="12" fill="#eef4f7" stroke="#d6e0e6" />
              <text class="subtitle" x="40.0" y="75.0" text-anchor="middle"><tspan x="40.0" dy="0.0">05</tspan></text>
              <text class="node-title" x="76.0" y="49.5" text-anchor="start"><tspan x="76.0" dy="0.0">向量检索 + 过滤</tspan></text>
              <text class="node-subtitle" x="76.0" y="98.5" text-anchor="start"><tspan x="76.0" dy="0.0">top-k、相似度分</tspan><tspan x="76.0" dy="21.0">metadata filter</tspan></text>
            </g>
            
            <g transform="translate(1110.0,610.0)">
              <rect width="300.0" height="142.0" rx="16" fill="#ffffff" stroke="#d6e0e6" filter="url(#soft-shadow)" />
              <rect x="18" y="49.0" width="44" height="44" rx="12" fill="#eef4f7" stroke="#d6e0e6" />
              <text class="subtitle" x="40.0" y="75.0" text-anchor="middle"><tspan x="40.0" dy="0.0">06</tspan></text>
              <text class="node-title" x="76.0" y="49.5" text-anchor="start"><tspan x="76.0" dy="0.0">Rerank</tspan></text>
              <text class="node-subtitle" x="76.0" y="98.5" text-anchor="start"><tspan x="76.0" dy="0.0">把粗召回变成可放入</tspan><tspan x="76.0" dy="21.0">context 的证据</tspan></text>
            </g>
            
            <g transform="translate(1450.0,610.0)">
              <rect width="300.0" height="142.0" rx="16" fill="#ffffff" stroke="#d6e0e6" filter="url(#soft-shadow)" />
              <rect x="18" y="49.0" width="44" height="44" rx="12" fill="#eef4f7" stroke="#d6e0e6" />
              <text class="subtitle" x="40.0" y="75.0" text-anchor="middle"><tspan x="40.0" dy="0.0">答</tspan></text>
              <text class="node-title" x="76.0" y="60.0" text-anchor="start"><tspan x="76.0" dy="0.0">拼接并生成</tspan></text>
              <text class="node-subtitle" x="76.0" y="109.0" text-anchor="start"><tspan x="76.0" dy="0.0">噪声 context 会伤害忠实性</tspan></text>
            </g>
            
            <g transform="translate(1110.0,830.0)">
              <rect width="300.0" height="142.0" rx="16" fill="#ffffff" stroke="#d6e0e6" filter="url(#soft-shadow)" />
              <rect x="18" y="49.0" width="44" height="44" rx="12" fill="#eef4f7" stroke="#d6e0e6" />
              <text class="subtitle" x="40.0" y="75.0" text-anchor="middle"><tspan x="40.0" dy="0.0">观</tspan></text>
              <text class="node-title" x="76.0" y="49.5" text-anchor="start"><tspan x="76.0" dy="0.0">评测与监控</tspan></text>
              <text class="node-subtitle" x="76.0" y="98.5" text-anchor="start"><tspan x="76.0" dy="0.0">Ragas + 线上分布</tspan><tspan x="76.0" dy="21.0">发现漂移后回到索引</tspan></text>
            </g>
            </g>
  <g><rect x="379.2" y="254.0" width="61.6" height="28.0" rx="4" fill="#f7f9fb" opacity="0.92" /><text class="edge-label" x="410.0" y="269.0" text-anchor="middle"><tspan x="410.0" dy="0.0">抽取结构</tspan></text><rect x="719.2" y="254.0" width="61.6" height="28.0" rx="4" fill="#f7f9fb" opacity="0.92" /><text class="edge-label" x="750.0" y="269.0" text-anchor="middle"><tspan x="750.0" dy="0.0">切分单元</tspan></text><rect x="1053.2" y="254.0" width="73.5" height="28.0" rx="4" fill="#f7f9fb" opacity="0.92" /><text class="edge-label" x="1090.0" y="269.0" text-anchor="middle"><tspan x="1090.0" dy="0.0">批量向量化</tspan></text><rect x="1399.2" y="254.0" width="61.6" height="28.0" rx="4" fill="#f7f9fb" opacity="0.92" /><text class="edge-label" x="1430.0" y="269.0" text-anchor="middle"><tspan x="1430.0" dy="0.0">写入索引</tspan></text><rect x="373.2" y="634.0" width="73.5" height="28.0" rx="4" fill="#f7f9fb" opacity="0.92" /><text class="edge-label" x="410.0" y="649.0" text-anchor="middle"><tspan x="410.0" dy="0.0">在线向量化</tspan></text><rect x="719.2" y="634.0" width="61.6" height="28.0" rx="4" fill="#f7f9fb" opacity="0.92" /><text class="edge-label" x="750.0" y="649.0" text-anchor="middle"><tspan x="750.0" dy="0.0">近邻搜索</tspan></text><rect x="1223.2" y="444.0" width="73.5" height="28.0" rx="4" fill="#f7f9fb" opacity="0.92" /><text class="edge-label" x="1260.0" y="459.0" text-anchor="middle"><tspan x="1260.0" dy="0.0">版本化召回</tspan></text><rect x="1059.2" y="634.0" width="61.6" height="28.0" rx="4" fill="#f7f9fb" opacity="0.92" /><text class="edge-label" x="1090.0" y="649.0" text-anchor="middle"><tspan x="1090.0" dy="0.0">候选证据</tspan></text><rect x="1384.9" y="634.0" width="90.2" height="28.0" rx="4" fill="#f7f9fb" opacity="0.92" /><text class="edge-label" x="1430.0" y="649.0" text-anchor="middle"><tspan x="1430.0" dy="0.0">拼接 context</tspan></text><rect x="1399.2" y="744.0" width="61.6" height="28.0" rx="4" fill="#f7f9fb" opacity="0.92" /><text class="edge-label" x="1430.0" y="759.0" text-anchor="middle"><tspan x="1430.0" dy="0.0">质量信号</tspan></text><rect x="1395.9" y="554.0" width="68.1" height="28.0" rx="4" fill="#f7f9fb" opacity="0.92" /><text class="edge-label" x="1430.0" y="569.0" text-anchor="middle"><tspan x="1430.0" dy="0.0">重建/回滚</tspan></text></g>
</svg>
