<svg xmlns="http://www.w3.org/2000/svg" width="2180" height="1040" viewBox="0 0 2180 1040" role="img" aria-label="请求路由决策：把每次调用送到足够好的最小模型">
  
    <defs>
      <filter id="soft-shadow" x="-20%" y="-20%" width="140%" height="140%">
        <feDropShadow dx="0" dy="14" stdDeviation="18" flood-color="#071018" flood-opacity="0.14" />
      </filter>
      <filter id="glow" x="-50%" y="-50%" width="200%" height="200%">
        <feGaussianBlur stdDeviation="10" result="blur" />
        <feMerge><feMergeNode in="blur" /><feMergeNode in="SourceGraphic" /></feMerge>
      </filter>
            <marker id="arrow" markerWidth="12" markerHeight="12" refX="10" refY="6" orient="auto" markerUnits="userSpaceOnUse">
        <path d="M2,2 L10,6 L2,10 Z" fill="#1f9d8a" />
      </marker>
            <marker id="arrow-muted" markerWidth="12" markerHeight="12" refX="10" refY="6" orient="auto" markerUnits="userSpaceOnUse">
        <path d="M2,2 L10,6 L2,10 Z" fill="#647485" opacity="0.35" />
      </marker>
            <marker id="dot-marker" markerWidth="8" markerHeight="8" refX="4" refY="4" orient="auto" markerUnits="userSpaceOnUse">
        <circle cx="4" cy="4" r="3" fill="#1f9d8a" />
      </marker>
            <marker id="dot-muted" markerWidth="8" markerHeight="8" refX="4" refY="4" orient="auto" markerUnits="userSpaceOnUse">
        <circle cx="4" cy="4" r="3" fill="#647485" opacity="0.35" />
      </marker>
      <linearGradient id="neural-edge" x1="0%" y1="0%" x2="100%" y2="0%">
        <stop offset="0%" stop-color="#1f9d8a" stop-opacity="0.15" />
        <stop offset="50%" stop-color="#5d74d8" stop-opacity="0.75" />
        <stop offset="100%" stop-color="#d88c3a" stop-opacity="0.2" />
      </linearGradient>
    </defs>
    
  
    <style>
      .title { font: 700 36px Inter, Segoe UI, Arial, sans-serif; fill: #17212b; }
      .subtitle { font: 500 14px Inter, Segoe UI, Arial, sans-serif; fill: #647485; }
      .node-title { font: 700 25px Inter, Segoe UI, Arial, sans-serif; fill: #17212b; }
      .node-subtitle { font: 500 16px Inter, Segoe UI, Arial, sans-serif; fill: #647485; }
      .edge-label { font: 650 14px Inter, Segoe UI, Arial, sans-serif; fill: #647485; }
      .panel-label { font: 700 14px Inter, Segoe UI, Arial, sans-serif; fill: #17212b; }
      .formula { font: 650 18px Consolas, Cascadia Mono, monospace; fill: #17212b; }
      .edge-path { fill: none; stroke: #1f9d8a; stroke-width: 2.5; marker-end: url(#arrow); }
      .edge-dot-path { fill: none; stroke: #1f9d8a; stroke-width: 2.5; marker-end: url(#dot-marker); }
      .edge-flow { stroke-dasharray: 10 12; animation: dash 1.6s linear infinite; }
      .flow-token { fill: #d88c3a; filter: url(#soft-shadow); opacity: 0.9; }
      .neuron { fill: #ffffff; stroke: #1f9d8a; stroke-width: 2; }
      .neuron.hot { animation: neuronPulse 2.4s ease-in-out infinite; }
      .neural-link { stroke: url(#neural-edge); stroke-width: 1.3; opacity: 0.42; animation: linkPulse 3.8s ease-in-out infinite; }
      .heat-cell { animation: heatShift 3.4s ease-in-out infinite; }
      @keyframes dash { to { stroke-dashoffset: -44; } }
      @keyframes neuronPulse { 0%,100% { filter: none; } 45% { filter: drop-shadow(0 0 14px #1f9d8a); } }
      @keyframes linkPulse { 0%,100% { opacity: 0.18; } 45% { opacity: 0.8; } }
      @keyframes heatShift { 0%,100% { opacity: 0.45; } 50% { opacity: 1; } }
    </style>
    
  <rect width="100%" height="100%" fill="#f7f9fb" />
  <rect x="54" y="44" width="2072" height="952" rx="28" fill="#ffffff" opacity="0.72" stroke="#d6e0e6" />
    <text class="title" x="90.0" y="100.0" text-anchor="start"><tspan x="90.0" dy="0.0">请求路由决策：把每次调用送到足够好的最小模型</tspan></text>
    <text class="subtitle" x="92.0" y="126.0" text-anchor="start"><tspan x="92.0" dy="0.0">用复杂度评分、质量门槛和兜底策略在小模型、大模型、异步批处理之间做成本与质量取舍</tspan></text>
    <line x1="92" y1="150.0" x2="2088" y2="150.0" stroke="#d6e0e6" stroke-width="1" stroke-dasharray="4 12" opacity="0.7" />
  <g><path id="edge-path-0" class="edge-path edge-flow" d="M 420.0 505.0 C 444.0 505.0, 446.0 505.0, 470.0 505.0" marker-end="url(#arrow)" /><path id="edge-path-1" class="edge-path edge-flow" d="M 800.0 505.0 C 824.0 505.0, 826.0 505.0, 850.0 505.0" marker-end="url(#arrow)" /><path id="edge-path-2" class="edge-path edge-flow" d="M 1180.0 505.0 C 1204.0 505.0, 1206.0 255.0, 1230.0 255.0" marker-end="url(#arrow)" /><path id="edge-path-3" class="edge-path edge-flow" d="M 1180.0 505.0 C 1204.0 505.0, 1206.0 505.0, 1230.0 505.0" marker-end="url(#arrow)" /><path id="edge-path-4" class="edge-path edge-flow" d="M 1180.0 505.0 C 1204.0 505.0, 1206.0 755.0, 1230.0 755.0" marker-end="url(#arrow)" /><path id="edge-path-5" class="edge-path edge-flow" d="M 1560.0 255.0 C 1584.0 255.0, 1586.0 505.0, 1610.0 505.0" marker-end="url(#arrow)" /><path id="edge-path-6" class="edge-path edge-flow" d="M 1560.0 505.0 C 1584.0 505.0, 1586.0 505.0, 1610.0 505.0" marker-end="url(#arrow)" /><path id="edge-path-7" class="edge-path edge-flow" d="M 1560.0 255.0 C 1652.4 255.0, 1687.6 755.0, 1780.0 755.0" marker-end="url(#arrow)" /><path id="edge-path-8" class="edge-path edge-flow" d="M 1560.0 505.0 C 1652.4 505.0, 1687.6 755.0, 1780.0 755.0" marker-end="url(#arrow)" /><path id="edge-path-9" class="edge-path edge-flow" d="M 1560.0 755.0 C 1652.4 755.0, 1687.6 755.0, 1780.0 755.0" marker-end="url(#arrow)" /><path id="edge-path-10" class="edge-path edge-flow" d="M 2110.0 755.0 C 1971.4 755.0, 1918.6 255.0, 1780.0 255.0" marker-end="url(#arrow)" /><path id="edge-path-11" class="edge-path edge-flow" d="M 2110.0 255.0 C 1580.8 255.0, 1379.2 505.0, 850.0 505.0" marker-end="url(#arrow)" /></g>
  <g><circle class="flow-token" r="7"><animateMotion dur="3.2s" begin="0.00s" repeatCount="indefinite"><mpath href="#edge-path-0" /></animateMotion></circle><circle class="flow-token" r="7"><animateMotion dur="3.2s" begin="0.35s" repeatCount="indefinite"><mpath href="#edge-path-1" /></animateMotion></circle><circle class="flow-token" r="7"><animateMotion dur="3.2s" begin="0.70s" repeatCount="indefinite"><mpath href="#edge-path-2" /></animateMotion></circle><circle class="flow-token" r="7"><animateMotion dur="3.2s" begin="1.05s" repeatCount="indefinite"><mpath href="#edge-path-3" /></animateMotion></circle><circle class="flow-token" r="7"><animateMotion dur="3.2s" begin="1.40s" repeatCount="indefinite"><mpath href="#edge-path-4" /></animateMotion></circle><circle class="flow-token" r="7"><animateMotion dur="3.2s" begin="1.75s" repeatCount="indefinite"><mpath href="#edge-path-5" /></animateMotion></circle><circle class="flow-token" r="7"><animateMotion dur="3.2s" begin="2.10s" repeatCount="indefinite"><mpath href="#edge-path-6" /></animateMotion></circle><circle class="flow-token" r="7"><animateMotion dur="3.2s" begin="2.45s" repeatCount="indefinite"><mpath href="#edge-path-7" /></animateMotion></circle><circle class="flow-token" r="7"><animateMotion dur="3.2s" begin="2.80s" repeatCount="indefinite"><mpath href="#edge-path-8" /></animateMotion></circle><circle class="flow-token" r="7"><animateMotion dur="3.2s" begin="3.15s" repeatCount="indefinite"><mpath href="#edge-path-9" /></animateMotion></circle><circle class="flow-token" r="7"><animateMotion dur="3.2s" begin="3.50s" repeatCount="indefinite"><mpath href="#edge-path-10" /></animateMotion></circle><circle class="flow-token" r="7"><animateMotion dur="3.2s" begin="3.85s" repeatCount="indefinite"><mpath href="#edge-path-11" /></animateMotion></circle></g>
  <g>
            <g transform="translate(90.0,430.0)">
              <rect width="330.0" height="150.0" rx="16" fill="#ffffff" stroke="#d6e0e6" filter="url(#soft-shadow)" />
              <rect x="18" y="53.0" width="44" height="44" rx="12" fill="#eef4f7" stroke="#d6e0e6" />
              <text class="subtitle" x="40.0" y="79.0" text-anchor="middle"><tspan x="40.0" dy="0.0">入</tspan></text>
              <text class="node-title" x="76.0" y="53.5" text-anchor="start"><tspan x="76.0" dy="0.0">用户请求</tspan></text>
              <text class="node-subtitle" x="76.0" y="102.5" text-anchor="start"><tspan x="76.0" dy="0.0">功能模块、用户等级</tspan><tspan x="76.0" dy="21.0">上下文长度、SLO</tspan></text>
            </g>
            
            <g transform="translate(470.0,430.0)">
              <rect width="330.0" height="150.0" rx="16" fill="#ffffff" stroke="#d6e0e6" filter="url(#soft-shadow)" />
              <rect x="18" y="53.0" width="44" height="44" rx="12" fill="#eef4f7" stroke="#d6e0e6" />
              <text class="subtitle" x="40.0" y="79.0" text-anchor="middle"><tspan x="40.0" dy="0.0">特</tspan></text>
              <text class="node-title" x="76.0" y="53.5" text-anchor="start"><tspan x="76.0" dy="0.0">复杂度特征</tspan></text>
              <text class="node-subtitle" x="76.0" y="102.5" text-anchor="start"><tspan x="76.0" dy="0.0">token 数、任务类型、检索分</tspan><tspan x="76.0" dy="21.0">历史失败率</tspan></text>
            </g>
            
            <g transform="translate(850.0,430.0)">
              <rect width="330.0" height="150.0" rx="16" fill="#ffffff" stroke="#d6e0e6" filter="url(#soft-shadow)" />
              <rect x="18" y="53.0" width="44" height="44" rx="12" fill="#eef4f7" stroke="#d6e0e6" />
              <text class="subtitle" x="40.0" y="79.0" text-anchor="middle"><tspan x="40.0" dy="0.0">分</tspan></text>
              <text class="node-title" x="76.0" y="53.5" text-anchor="start"><tspan x="76.0" dy="0.0">路由评分器</tspan></text>
              <text class="node-subtitle" x="76.0" y="102.5" text-anchor="start"><tspan x="76.0" dy="0.0">简单、普通、复杂</tspan><tspan x="76.0" dy="21.0">输出可解释原因</tspan></text>
            </g>
            
            <g transform="translate(1230.0,180.0)">
              <rect width="330.0" height="150.0" rx="16" fill="#ffffff" stroke="#d6e0e6" filter="url(#soft-shadow)" />
              <rect x="18" y="53.0" width="44" height="44" rx="12" fill="#eef4f7" stroke="#d6e0e6" />
              <text class="subtitle" x="40.0" y="79.0" text-anchor="middle"><tspan x="40.0" dy="0.0">小</tspan></text>
              <text class="node-title" x="76.0" y="53.5" text-anchor="start"><tspan x="76.0" dy="0.0">小模型路径</tspan></text>
              <text class="node-subtitle" x="76.0" y="102.5" text-anchor="start"><tspan x="76.0" dy="0.0">低成本、低延迟</tspan><tspan x="76.0" dy="21.0">适合分类、模板、短摘要</tspan></text>
            </g>
            
            <g transform="translate(1230.0,430.0)">
              <rect width="330.0" height="150.0" rx="16" fill="#ffffff" stroke="#d6e0e6" filter="url(#soft-shadow)" />
              <rect x="18" y="53.0" width="44" height="44" rx="12" fill="#eef4f7" stroke="#d6e0e6" />
              <text class="subtitle" x="40.0" y="79.0" text-anchor="middle"><tspan x="40.0" dy="0.0">大</tspan></text>
              <text class="node-title" x="76.0" y="53.5" text-anchor="start"><tspan x="76.0" dy="0.0">大模型路径</tspan></text>
              <text class="node-subtitle" x="76.0" y="102.5" text-anchor="start"><tspan x="76.0" dy="0.0">高质量边界</tspan><tspan x="76.0" dy="21.0">适合复杂推理和高价值请求</tspan></text>
            </g>
            
            <g transform="translate(1230.0,680.0)">
              <rect width="330.0" height="150.0" rx="16" fill="#ffffff" stroke="#d6e0e6" filter="url(#soft-shadow)" />
              <rect x="18" y="53.0" width="44" height="44" rx="12" fill="#eef4f7" stroke="#d6e0e6" />
              <text class="subtitle" x="40.0" y="79.0" text-anchor="middle"><tspan x="40.0" dy="0.0">批</tspan></text>
              <text class="node-title" x="76.0" y="53.5" text-anchor="start"><tspan x="76.0" dy="0.0">异步批处理</tspan></text>
              <text class="node-subtitle" x="76.0" y="102.5" text-anchor="start"><tspan x="76.0" dy="0.0">延迟不敏感</tspan><tspan x="76.0" dy="21.0">合并请求换利用率</tspan></text>
            </g>
            
            <g transform="translate(1610.0,430.0)">
              <rect width="330.0" height="150.0" rx="16" fill="#ffffff" stroke="#d6e0e6" filter="url(#soft-shadow)" />
              <rect x="18" y="53.0" width="44" height="44" rx="12" fill="#eef4f7" stroke="#d6e0e6" />
              <text class="subtitle" x="40.0" y="79.0" text-anchor="middle"><tspan x="40.0" dy="0.0">兜</tspan></text>
              <text class="node-title" x="76.0" y="53.5" text-anchor="start"><tspan x="76.0" dy="0.0">兜底策略</tspan></text>
              <text class="node-subtitle" x="76.0" y="102.5" text-anchor="start"><tspan x="76.0" dy="0.0">低置信、小模型失败</tspan><tspan x="76.0" dy="21.0">用户追问时升级</tspan></text>
            </g>
            
            <g transform="translate(1780.0,680.0)">
              <rect width="330.0" height="150.0" rx="16" fill="#ffffff" stroke="#d6e0e6" filter="url(#soft-shadow)" />
              <rect x="18" y="53.0" width="44" height="44" rx="12" fill="#eef4f7" stroke="#d6e0e6" />
              <text class="subtitle" x="40.0" y="79.0" text-anchor="middle"><tspan x="40.0" dy="0.0">测</tspan></text>
              <text class="node-title" x="76.0" y="53.5" text-anchor="start"><tspan x="76.0" dy="0.0">成本与质量反馈</tspan></text>
              <text class="node-subtitle" x="76.0" y="102.5" text-anchor="start"><tspan x="76.0" dy="0.0">$/request、TTFT、通过率</tspan><tspan x="76.0" dy="21.0">人工 review</tspan></text>
            </g>
            
            <g transform="translate(1780.0,180.0)">
              <rect width="330.0" height="150.0" rx="16" fill="#ffffff" stroke="#d6e0e6" filter="url(#soft-shadow)" />
              <rect x="18" y="53.0" width="44" height="44" rx="12" fill="#eef4f7" stroke="#d6e0e6" />
              <text class="subtitle" x="40.0" y="79.0" text-anchor="middle"><tspan x="40.0" dy="0.0">调</tspan></text>
              <text class="node-title" x="76.0" y="64.0" text-anchor="start"><tspan x="76.0" dy="0.0">阈值更新</tspan></text>
              <text class="node-subtitle" x="76.0" y="113.0" text-anchor="start"><tspan x="76.0" dy="0.0">按评测和账单调整路由阈值</tspan></text>
            </g>
            </g>
  <g><rect x="426.1" y="458.0" width="37.8" height="28.0" rx="4" fill="#f7f9fb" opacity="0.92" /><text class="edge-label" x="445.0" y="473.0" text-anchor="middle"><tspan x="445.0" dy="0.0">提取</tspan></text><rect x="806.1" y="458.0" width="37.8" height="28.0" rx="4" fill="#f7f9fb" opacity="0.92" /><text class="edge-label" x="825.0" y="473.0" text-anchor="middle"><tspan x="825.0" dy="0.0">打分</tspan></text><rect x="1180.2" y="333.0" width="49.7" height="28.0" rx="4" fill="#f7f9fb" opacity="0.92" /><text class="edge-label" x="1205.0" y="348.0" text-anchor="middle"><tspan x="1205.0" dy="0.0">低复杂</tspan></text><rect x="1165.0" y="458.0" width="80.0" height="28.0" rx="4" fill="#f7f9fb" opacity="0.92" /><text class="edge-label" x="1205.0" y="473.0" text-anchor="middle"><tspan x="1205.0" dy="0.0">高价值/复杂</tspan></text><rect x="1180.2" y="583.0" width="49.7" height="28.0" rx="4" fill="#f7f9fb" opacity="0.92" /><text class="edge-label" x="1205.0" y="598.0" text-anchor="middle"><tspan x="1205.0" dy="0.0">可排队</tspan></text><rect x="1548.2" y="333.0" width="73.5" height="28.0" rx="4" fill="#f7f9fb" opacity="0.92" /><text class="edge-label" x="1585.0" y="348.0" text-anchor="middle"><tspan x="1585.0" dy="0.0">低置信升级</tspan></text><rect x="1566.1" y="458.0" width="37.8" height="28.0" rx="4" fill="#f7f9fb" opacity="0.92" /><text class="edge-label" x="1585.0" y="473.0" text-anchor="middle"><tspan x="1585.0" dy="0.0">保底</tspan></text><rect x="1639.2" y="458.0" width="61.6" height="28.0" rx="4" fill="#f7f9fb" opacity="0.92" /><text class="edge-label" x="1670.0" y="473.0" text-anchor="middle"><tspan x="1670.0" dy="0.0">记录成本</tspan></text><rect x="1639.2" y="583.0" width="61.6" height="28.0" rx="4" fill="#f7f9fb" opacity="0.92" /><text class="edge-label" x="1670.0" y="598.0" text-anchor="middle"><tspan x="1670.0" dy="0.0">记录质量</tspan></text><rect x="1639.2" y="708.0" width="61.6" height="28.0" rx="4" fill="#f7f9fb" opacity="0.92" /><text class="edge-label" x="1670.0" y="723.0" text-anchor="middle"><tspan x="1670.0" dy="0.0">记录吞吐</tspan></text><rect x="1926.1" y="458.0" width="37.8" height="28.0" rx="4" fill="#f7f9fb" opacity="0.92" /><text class="edge-label" x="1945.0" y="473.0" text-anchor="middle"><tspan x="1945.0" dy="0.0">校准</tspan></text><rect x="1449.2" y="333.0" width="61.6" height="28.0" rx="4" fill="#f7f9fb" opacity="0.92" /><text class="edge-label" x="1480.0" y="348.0" text-anchor="middle"><tspan x="1480.0" dy="0.0">更新阈值</tspan></text></g>
</svg>
